<svg width="686" height="502" viewBox="0 0 686 502" fill="none" xmlns="http://www.w3.org/2000/svg">
<g opacity="0.5" clip-path="url(#clip0_1081_484)">
<path d="M318.016 331.573C320.236 331.224 322.497 331.08 324.779 331.162C343.216 329.537 360.934 339.639 368.457 356.902C360.934 344.104 348.19 335.195 333.925 332.499C343.915 335.092 353.329 341.141 359.7 348.672C353.925 343.343 347.553 339.207 340.174 336.47C333.021 333.837 325.683 332.787 318.14 332.15C317.811 332.129 317.728 331.615 318.078 331.553L318.016 331.573Z" fill="#D9DDE1"/>
<path d="M326.176 326.677C334.028 325.092 342.27 325.792 349.485 329.372C356.905 333.055 362.516 338.898 366.73 345.915C366.751 345.956 366.689 345.997 366.648 345.956C362.763 339.084 356.001 333.899 348.848 330.792C341.715 327.705 333.987 325.936 326.217 326.862C326.094 326.862 326.053 326.697 326.176 326.677Z" fill="#D9DDE1"/>
<path d="M337.81 321.636C352.753 323.631 364.531 333.775 371.725 346.655C371.725 346.655 371.725 346.696 371.704 346.655C367.963 340.277 362.907 335.092 356.741 331.018C353.925 329.166 350.965 327.602 348.046 325.895C344.778 323.961 341.386 322.994 337.789 321.882C337.646 321.841 337.687 321.615 337.831 321.636H337.81Z" fill="#D9DDE1"/>
<path d="M353.945 325.442C361.571 326.656 368.806 330.113 375.568 333.713C382.577 337.458 389.319 341.758 395.712 346.47C395.732 346.491 395.712 346.532 395.691 346.511C389.237 342.046 382.475 338.137 375.363 334.824C368.313 331.532 360.831 329.104 353.863 325.648C353.74 325.586 353.842 325.421 353.966 325.442H353.945Z" fill="#D9DDE1"/>
<path d="M362.249 325.03C366.833 326.368 371.519 327.644 375.856 329.639C380.419 331.759 384.777 334.166 388.97 336.923C397.15 342.273 404.735 348.548 411.6 355.503C404.612 348.692 396.842 342.787 388.394 337.89C384.407 335.586 380.296 333.425 376.123 331.471C371.499 329.29 366.997 326.944 362.208 325.133C362.146 325.113 362.167 325.03 362.229 325.051L362.249 325.03Z" fill="#D9DDE1"/>
<path d="M382.742 332.108C387.716 333.631 392.402 336.656 396.924 339.145C401.59 341.697 405.948 344.886 409.894 348.445C417.89 355.606 424.96 364.165 430.489 373.342C424.488 364.288 417.376 356.346 408.928 349.474C404.858 346.161 400.645 343.055 396.39 340.009C392.053 336.902 387.202 334.968 382.639 332.294C382.536 332.232 382.618 332.067 382.721 332.108H382.742Z" fill="#D9DDE1"/>
<path d="M361.386 322.232C362.064 322.294 362.763 322.376 363.441 322.459C363.441 322.376 363.482 322.294 363.565 322.294C367.388 322.026 371.231 322.232 375.054 322.726C378.138 322.459 381.282 322.85 384.366 322.85C387.675 322.85 390.984 322.726 394.273 322.356C400.645 321.656 407.078 320.134 413.018 317.706C413.08 317.685 413.121 317.767 413.059 317.788C406.914 320.278 400.686 322.232 394.108 323.302C390.943 323.817 387.428 324.31 383.954 324.372C388.374 325.401 392.711 326.677 396.945 327.952C396.965 327.952 396.945 328.014 396.945 327.993C391.457 326.594 385.825 325.751 380.234 324.845C377.644 324.434 375.013 324.125 372.403 323.817C384.139 325.977 395.28 330.277 405.906 335.812C405.948 335.812 405.906 335.874 405.886 335.853C397.623 331.944 388.949 328.96 380.131 326.512C383.687 327.849 387.12 329.413 390.409 331.203C394.972 333.672 399.247 336.656 403.296 339.886C404.838 341.121 406.318 342.417 407.736 343.754C402.351 339.269 396.164 335.565 390.08 332.438C380.954 327.726 371.334 324.701 361.345 322.417C361.242 322.397 361.263 322.232 361.365 322.232H361.386Z" fill="#D9DDE1"/>
<path d="M414.621 350.544C414.395 350.256 414.149 349.989 413.902 349.721C414.169 349.968 414.416 350.235 414.683 350.482C414.724 350.523 414.663 350.585 414.621 350.544Z" fill="#D9DDE1"/>
<path d="M413.902 349.721C411.847 347.705 409.832 345.688 407.736 343.734C409.956 345.585 412.032 347.581 413.902 349.721Z" fill="#D9DDE1"/>
<path d="M376.966 320.566C386.339 320.38 395.3 319.002 404.139 315.792C413.08 312.541 421.24 307.891 428.681 302.007C415.361 315.237 395.65 322.335 376.945 320.751C376.822 320.751 376.822 320.545 376.945 320.545L376.966 320.566Z" fill="#D9DDE1"/>
<path d="M342.311 330.956C334.932 328.652 327.553 328.179 319.887 328.569C319.825 328.569 319.825 328.487 319.887 328.467C327.348 327.129 335.282 328.281 342.332 330.936L342.311 330.956Z" fill="#D9DDE1"/>
<path d="M332.671 324.228C335.94 324.269 339.167 324.66 342.353 325.319C339.269 324.845 336.145 324.64 333.021 324.681C329.917 324.722 326.772 325.668 323.689 325.504C323.484 325.504 323.381 325.175 323.586 325.092C326.279 323.981 329.773 324.207 332.651 324.228H332.671Z" fill="#D9DDE1"/>
<path d="M369.135 316.841C373.965 317.397 378.713 317.829 383.605 317.315C388.25 316.821 392.978 315.71 397.541 314.66C406.955 312.521 415.731 308.879 423.748 303.509C416.142 309.187 407.386 313.652 398.219 316.163C393.574 317.438 389.134 317.85 384.345 317.932C379.309 318.014 374.109 318.117 369.114 317.397C368.765 317.356 368.765 316.78 369.114 316.821L369.135 316.841Z" fill="#D9DDE1"/>
<path d="M377.172 312.438C396.575 313.899 415.752 308.035 431.414 296.575C416.615 309.27 396.41 314.949 377.151 312.521C377.069 312.521 377.069 312.397 377.151 312.397L377.172 312.438Z" fill="#D9DDE1"/>
<path d="M382.269 309.105C393.594 308.591 404.694 306.08 415.033 301.389C425.001 296.883 434.888 290.978 442.801 283.365C442.843 283.324 442.884 283.365 442.863 283.427C434.826 291.801 425.885 298.591 415.053 302.912C404.673 307.048 393.471 309.331 382.269 309.208C382.187 309.208 382.187 309.085 382.269 309.085V309.105Z" fill="#D9DDE1"/>
<path d="M387.757 302.891C400.727 301.76 413.018 298.138 424.241 291.431C435.032 284.991 445.33 276.246 452.935 266.164C452.955 266.123 453.017 266.164 452.996 266.205C449.482 271.761 445.597 277.049 440.705 281.472C435.895 285.834 430.613 289.558 424.878 292.604C413.553 298.612 400.624 302.583 387.778 303.015C387.695 303.015 387.695 302.891 387.778 302.891H387.757Z" fill="#D9DDE1"/>
<path d="M396.493 304.867C411.251 302.151 425.228 295.628 436.841 286.019C436.882 285.978 436.943 286.04 436.902 286.081C431.27 291.513 425.454 295.669 418.301 298.879C411.415 301.965 404.036 304.188 396.534 305.031C396.431 305.031 396.369 304.887 396.493 304.867Z" fill="#D9DDE1"/>
<path d="M431.25 282.522C434.682 280.135 437.93 277.522 441.013 274.724C438.115 276.678 434.97 278.407 432.072 279.97C426.749 282.871 421.178 285.32 415.485 287.377C415.444 287.377 415.423 287.316 415.464 287.316C421.137 285.196 426.584 282.583 431.805 279.497C434.354 277.995 436.841 276.37 439.266 274.682C441.712 272.954 443.994 270.938 446.542 269.374C450.407 265.465 454.209 261.391 457.354 256.885C457.416 256.802 457.518 256.885 457.477 256.967C454.168 262.028 450.838 267.008 446.583 271.329C442.288 275.711 437.457 279.641 432.422 283.139C422.35 290.155 410.613 295.175 398.61 297.727C398.569 297.727 398.548 297.665 398.61 297.645C410.387 294.538 421.261 289.456 431.27 282.522H431.25Z" fill="#D9DDE1"/>
<path d="M461.136 248.078C461.136 248.078 461.259 248.078 461.218 248.14C451.537 265.382 435.052 278.139 416.533 284.703C416.451 284.723 416.41 284.6 416.492 284.559C434.662 277.007 449.708 263.983 461.136 248.058V248.078Z" fill="#D9DDE1"/>
<path d="M400.891 261.658C409.688 262.522 418.588 262.81 427.283 260.876C431.455 259.95 435.607 258.942 439.657 257.543C443.747 256.123 447.693 254.189 451.866 252.996C451.907 252.996 451.928 253.037 451.907 253.058C451.599 253.325 451.27 253.593 450.941 253.839C451.619 253.387 452.298 252.934 452.996 252.523C453.058 252.481 453.14 252.564 453.099 252.625C452.976 252.811 452.832 253.016 452.688 253.202C453.161 252.811 453.634 252.461 454.147 252.152C454.147 252.152 454.189 252.152 454.168 252.173C454.004 252.79 453.736 253.407 453.428 253.983C455.73 251.473 457.909 248.84 459.841 246.062C455.319 253.716 449.872 260.568 442.678 265.876C435.916 270.855 428.002 275.238 419.883 277.522C419.76 277.563 419.698 277.378 419.801 277.316C427.9 274.024 435.258 270.238 442.02 264.642C442.966 263.86 443.911 263.057 444.857 262.234C441.034 264.868 436.204 266.72 431.661 267.604C431.538 267.625 431.455 267.44 431.579 267.378C436.039 265.691 439.821 263.592 443.726 260.897C444.055 260.67 444.384 260.424 444.713 260.177C442.288 261.617 439.677 262.749 437.128 263.551C430.551 265.629 423.707 266.555 416.841 266.679C416.513 266.679 416.533 266.144 416.841 266.185C423.645 266.74 430.531 265.362 436.656 262.337C439.41 260.979 442.164 259.601 444.775 257.955C446.111 257.111 447.406 256.226 448.701 255.321C446.172 256.864 443.398 257.996 440.643 258.983C436.286 260.568 431.805 261.761 427.221 262.378C418.486 263.551 409.442 263.88 400.788 261.946C400.603 261.905 400.665 261.617 400.83 261.638L400.891 261.658Z" fill="#D9DDE1"/>
<path d="M397.829 245.897C415.361 255.074 437.725 256.617 456.059 248.901C437.355 257.975 415.361 257.358 397.685 246.124C397.541 246.021 397.685 245.815 397.829 245.897Z" fill="#D9DDE1"/>
<path d="M397.911 251.453C404.961 253.448 412.155 254.971 419.472 255.485C426.646 255.979 434.333 256 441.465 255.053C441.507 255.053 441.507 255.095 441.465 255.115C437.848 255.794 434.333 256.576 430.654 256.782C426.913 256.987 423.172 256.843 419.452 256.494C412.073 255.815 404.776 254.333 397.87 251.658C397.746 251.617 397.808 251.432 397.931 251.473L397.911 251.453Z" fill="#D9DDE1"/>
<path d="M395.465 241.33C399.452 243.469 403.543 245.198 407.715 246.906C408.435 247.194 409.175 247.502 409.894 247.79C409.894 247.77 409.915 247.729 409.935 247.708C408.907 247.358 407.859 246.988 406.955 246.473C406.256 246.227 405.578 245.938 404.92 245.63C404.694 245.527 404.858 245.198 405.084 245.239C407.099 245.712 409.072 246.494 411.004 247.317C411.806 247.317 412.546 247.502 413.388 247.626C414.889 247.873 416.389 248.058 417.89 248.202C420.603 248.469 423.316 248.593 426.029 248.552C431.64 248.49 437.19 247.749 442.658 246.556C448.146 245.342 453.572 243.757 458.71 241.453C463.767 239.19 468.001 235.959 472.605 232.996C472.626 232.996 472.667 233.017 472.646 233.038C468.72 236.824 463.459 239.601 458.649 242.091C453.675 244.663 448.454 246.823 443.007 248.181C437.663 249.519 432.134 250.198 426.625 250.3C425.433 250.321 424.241 250.3 423.028 250.3C423.398 250.362 423.789 250.403 424.159 250.465C424.241 250.465 424.241 250.609 424.159 250.609C423.645 250.609 423.11 250.609 422.597 250.609C421.754 250.65 420.911 250.691 420.068 250.733C419.185 250.774 418.239 250.938 417.335 250.856C418.095 251.165 418.835 251.432 419.555 251.597C420.089 251.72 419.801 252.605 419.328 252.379C418.383 251.967 417.232 251.864 416.245 251.576C415.094 251.247 413.984 250.794 412.874 250.362C410.963 249.621 409.072 248.86 407.201 247.975C403.132 246.062 399.226 243.737 395.383 241.391C395.321 241.35 395.383 241.268 395.444 241.309L395.465 241.33Z" fill="#D9DDE1"/>
<path d="M425.104 244.622C445.885 245.753 466.583 236.577 481.094 221.845C477.086 224.643 473.16 227.544 468.967 230.116C462.965 233.799 455.936 236.885 448.762 235.754C448.516 235.712 448.598 235.342 448.824 235.322C456.655 235.136 463.623 232.112 470.098 227.873C476.86 223.449 483.211 217.73 491.063 215.302C491.145 215.281 491.186 215.384 491.104 215.425C487.733 217.297 484.547 219.437 481.402 221.639C468.165 238.737 446.398 246.906 425.104 244.807C425.001 244.807 425.001 244.622 425.104 244.642V244.622Z" fill="#D9DDE1"/>
<path d="M419.966 240.568C432.874 241.967 446.501 240.548 458.772 236.186C446.481 241.926 433.223 243.593 419.925 240.753C419.801 240.733 419.842 240.527 419.966 240.548V240.568Z" fill="#D9DDE1"/>
<path d="M418.65 229.89C422.905 231.206 427.283 232.42 431.743 232.708C435.977 232.996 440.355 232.832 444.59 232.462C448.886 232.112 453.161 231.227 457.333 230.219C461.855 229.128 465.925 227.215 470.118 225.26C470.159 225.26 470.18 225.301 470.159 225.322C455.34 235.733 435.114 236.762 418.609 230.075C418.486 230.013 418.527 229.828 418.671 229.869L418.65 229.89Z" fill="#D9DDE1"/>
<path d="M506.438 207.73C506.438 207.73 506.499 207.792 506.438 207.812C500.148 209.252 494.126 211.577 488.206 214.067C482.451 216.474 477.045 219.581 471.413 222.215C471.208 222.318 470.981 222.03 471.166 221.865C480.847 213.347 493.982 209.726 506.417 207.73H506.438Z" fill="#D9DDE1"/>
<path d="M453.839 222.421C465.884 220.404 476.51 213.779 487.671 209.191C497.188 205.302 507.445 203.039 517.66 205.364C506.787 203.43 495.811 207.503 485.965 211.804C475.544 216.351 465.35 221.33 453.88 222.585C453.757 222.585 453.716 222.421 453.839 222.4V222.421Z" fill="#D9DDE1"/>
<path d="M462.02 214.067C472.071 214.088 480.498 209.561 489.542 205.775C497.209 202.565 505.862 199.891 514.207 201.722C514.269 201.722 514.248 201.825 514.207 201.825C495.729 200.528 480.58 216.145 462.02 214.335C461.855 214.335 461.855 214.067 462.02 214.067Z" fill="#D9DDE1"/>
<path d="M431.887 225.98C443.418 228.634 456.162 227.276 467.117 222.914C467.179 222.894 467.22 222.976 467.158 222.997C456.265 229.375 443.685 230.219 431.825 226.145C431.702 226.104 431.764 225.939 431.887 225.96V225.98Z" fill="#D9DDE1"/>
<path d="M499.408 198.656C503.724 197.73 507.897 197.36 512.316 197.38C516.632 197.422 521.216 197.463 525.389 198.677C525.43 198.677 525.43 198.759 525.389 198.759C521.011 198.389 516.776 197.854 512.357 198.265C507.938 198.677 503.416 199.541 499.079 200.508C489.686 202.586 480.786 206.351 471.495 208.861C471.331 208.903 471.228 208.656 471.392 208.573C480.19 204.067 489.747 200.714 499.408 198.677V198.656Z" fill="#D9DDE1"/>
<path d="M495.256 194.891C499.346 193.656 503.663 193.08 507.917 192.771C516.674 192.134 525.245 193.636 533.549 196.393C533.61 196.393 533.59 196.496 533.528 196.475C525.43 194.356 516.9 193.924 508.555 194.459C500.148 194.994 491.392 196.743 483.602 199.932C483.499 199.973 483.396 199.808 483.52 199.767C487.281 197.895 491.268 196.105 495.277 194.891H495.256Z" fill="#D9DDE1"/>
<path d="M498.319 191.681C514.166 185.508 532.357 187.113 547.073 195.611C547.135 195.652 547.073 195.755 547.032 195.714C531.802 189.047 514.598 188.06 498.586 192.36C498.195 192.463 497.928 191.825 498.319 191.66V191.681Z" fill="#D9DDE1"/>
<path d="M503.375 191.887C507.465 190.755 511.206 189.809 515.502 190.405C519.51 190.961 523.58 191.578 527.465 192.813C523.477 192.01 519.551 191.413 515.461 191.702C511.473 191.99 507.404 191.702 503.437 192.134C503.293 192.134 503.231 191.948 503.375 191.907V191.887Z" fill="#D9DDE1"/>
<path d="M509.315 186.126C515.255 184.912 521.031 184.438 527.054 185.344C532.788 186.208 538.173 188.245 543.415 190.673C543.476 190.693 543.415 190.796 543.374 190.776C537.906 188.677 532.089 187.607 526.293 186.949C520.723 186.311 514.947 185.94 509.336 186.352C509.192 186.352 509.171 186.146 509.315 186.105V186.126Z" fill="#D9DDE1"/>
<path d="M515.07 182.998C518.935 182.484 522.758 182.196 526.54 182.34C526.478 182.155 526.581 181.928 526.827 181.928C533.281 181.969 539.448 181.764 545.737 183.554C551.76 185.261 557.536 188.409 562.756 191.825C562.756 191.825 562.756 191.866 562.756 191.846C557.248 188.636 551.452 186.702 545.285 185.138C539.962 183.801 534.289 182.422 528.718 182.463C531.103 182.669 533.467 183.039 535.851 183.677C542.695 185.529 549.252 188.965 554.966 193.121C555.028 193.162 554.966 193.286 554.905 193.224C549.129 189.397 542.819 186.907 536.077 185.405C529.356 183.924 522.121 182.875 515.235 183.636C514.803 183.677 514.659 183.039 515.091 182.978L515.07 182.998Z" fill="#D9DDE1"/>
<path d="M540.537 180.179C549.088 181.085 557.145 184.85 564.504 189.13C564.524 189.13 564.503 189.191 564.483 189.171C556.755 185.591 548.512 183.739 540.311 181.599C531.843 179.397 523.128 179.295 514.495 180.262C514.433 180.262 514.433 180.179 514.495 180.179C523.128 178.945 531.925 179.253 540.558 180.179H540.537Z" fill="#D9DDE1"/>
<path d="M542.901 179.768C544.484 179.768 546.066 180.159 547.69 180.2C549.067 180.241 550.218 180.364 551.554 180.694C554.555 181.414 557.515 182.34 560.413 183.451C565.963 185.611 571.245 188.862 575.891 192.607C575.973 192.669 575.891 192.792 575.808 192.73C570.629 189.562 565.285 187.072 559.591 184.953C556.919 183.965 554.206 183.122 551.431 182.443C549.972 182.093 548.615 181.62 547.176 181.167C545.737 180.694 544.278 180.673 542.819 180.323C542.49 180.241 542.593 179.768 542.901 179.768Z" fill="#D9DDE1"/>
<path d="M548.697 177.772C552.479 178.163 556.22 179.439 559.776 180.714C563.394 182.031 566.991 183.512 570.361 185.385C577.35 189.253 583.393 194.294 588.758 200.199C588.778 200.24 588.758 200.281 588.716 200.24C583.167 194.932 576.754 190.385 570.033 186.661C566.621 184.768 563.167 182.998 559.529 181.578C555.973 180.179 552.274 179.315 548.656 178.06C548.492 177.998 548.512 177.731 548.697 177.751V177.772Z" fill="#D9DDE1"/>
<path d="M558.111 177.278C575.562 183.41 590.977 194.582 601.933 209.52C601.933 209.54 601.933 209.582 601.892 209.561C598.788 206.228 595.746 202.997 592.272 200.055C588.675 197.031 585.037 194.006 581.235 191.249C577.699 188.677 574.205 185.982 570.423 183.78C566.415 181.455 562.222 179.48 558.008 177.546C557.864 177.484 557.967 177.237 558.111 177.299V177.278Z" fill="#D9DDE1"/>
<path d="M572.499 180.241C575.603 181.229 578.604 183.101 581.317 184.891C584.318 186.866 587.216 189.006 590.032 191.269C595.705 195.858 600.145 201.228 604.728 206.866C604.79 206.927 604.687 207.03 604.625 206.969C600.042 201.66 594.389 197.031 588.943 192.627C586.209 190.405 583.352 188.327 580.413 186.414C577.658 184.603 574.678 182.957 572.129 180.879C571.821 180.632 572.17 180.159 572.52 180.262L572.499 180.241Z" fill="#D9DDE1"/>
<path d="M551.637 173.575C560.372 173.677 568.882 176.208 576.836 179.747C584.935 183.348 591.759 188.307 598.377 194.129C598.418 194.171 598.377 194.212 598.315 194.191C591.676 188.656 583.578 184.233 575.623 180.941C567.874 177.71 559.735 175.838 551.554 174.089C551.267 174.027 551.349 173.575 551.637 173.575Z" fill="#D9DDE1"/>
<path d="M519.983 175.426C520.969 175.077 521.977 174.747 522.963 174.459C522.675 174.398 522.614 173.945 522.881 173.821C527.999 171.291 534.268 170.529 539.9 169.953C546.107 169.336 552.335 169.274 558.584 169.439C558.604 169.439 558.604 169.48 558.584 169.48C552.376 169.624 546.169 170.365 540.044 171.414C539.201 171.558 538.358 171.723 537.495 171.908C539.201 171.764 540.928 171.661 542.654 171.579C550.444 171.25 557.823 172.319 565.449 173.719C565.47 173.719 565.449 173.76 565.449 173.76C558.091 172.834 550.383 172.978 542.983 173.287C535.296 173.595 527.691 174.891 520.086 175.92C519.757 175.961 519.654 175.529 519.962 175.426H519.983Z" fill="#D9DDE1"/>
<path d="M573.671 169.315C573.671 169.315 573.671 169.377 573.671 169.357C558.892 165.612 544.319 167.237 529.499 169.686C529.253 169.727 529.068 169.357 529.335 169.233C543.312 163.637 559.529 165.139 573.691 169.295L573.671 169.315Z" fill="#D9DDE1"/>
<path d="M539.407 163.554C556.035 160.2 572.807 165.2 587.38 173.081C587.463 173.122 587.38 173.245 587.319 173.204C572.581 165.591 555.768 164.028 539.448 164.048C539.16 164.048 539.119 163.616 539.407 163.554Z" fill="#D9DDE1"/>
<path d="M558.152 162.279C569.498 162.402 580.392 166.003 590.237 171.538C590.237 171.538 590.237 171.579 590.237 171.558C580.104 166.805 569.19 164.172 558.152 162.464C558.029 162.464 558.029 162.258 558.152 162.258V162.279Z" fill="#D9DDE1"/>
<path d="M549.561 157.958C548.636 157.937 547.731 157.876 546.806 157.793C546.745 157.793 546.745 157.711 546.806 157.711C553.014 157.752 558.913 156.106 564.565 153.616C567.134 152.485 569.663 151.188 571.965 149.563C574.555 147.732 576.61 145.469 578.933 143.329C578.953 143.308 579.015 143.329 578.994 143.37C576.055 148.411 570.197 152.67 564.976 155.098C564.113 155.489 563.229 155.839 562.345 156.147C563.27 156.003 564.216 155.839 565.141 155.612C568.347 154.83 571.43 153.678 574.411 152.238C574.411 152.238 574.431 152.238 574.411 152.258C570.711 154.439 566.148 156.538 561.605 157.341C562.489 157.402 563.373 157.505 564.257 157.649C570.403 158.596 576.507 160.982 581.851 164.13C581.851 164.13 581.851 164.172 581.851 164.151C575.993 161.394 569.971 159.748 563.558 158.945C557.371 158.164 551.225 157.855 545.059 158.945C544.997 158.945 544.977 158.863 545.039 158.843C546.539 158.493 548.039 158.184 549.561 157.937V157.958Z" fill="#D9DDE1"/>
<path d="M538.132 161.538C544.319 159.789 550.794 159.666 557.124 160.612V160.633C550.753 160.139 544.463 160.694 538.194 161.764C538.05 161.785 538.009 161.6 538.153 161.558L538.132 161.538Z" fill="#D9DDE1"/>
<path d="M554.432 153.946C560.29 152.32 565.675 150.386 570.793 147.032C575.829 143.74 579.837 139.522 583.701 134.975C583.783 134.872 583.907 135.016 583.866 135.098C578.789 145.674 566.148 153.719 554.452 154.192C554.288 154.192 554.288 153.966 554.432 153.925V153.946Z" fill="#D9DDE1"/>
<path d="M559.653 148.843C565.737 146.6 571.184 143.514 576.096 139.234C580.803 135.119 584.688 130.572 588.573 125.695C588.614 125.634 588.737 125.675 588.696 125.757C583.825 137.547 571.636 145.715 559.694 148.987C559.591 149.007 559.57 148.863 559.653 148.843Z" fill="#D9DDE1"/>
<path d="M579.118 133.37C583.496 129.317 587.668 124.996 590.751 119.831C590.792 119.77 590.875 119.831 590.854 119.893C588.1 125.305 584.791 130.49 580.145 134.461C575.562 138.37 570.012 141.292 564.401 143.411C564.339 143.431 564.277 143.349 564.36 143.308C569.93 140.901 574.698 137.485 579.138 133.37H579.118Z" fill="#D9DDE1"/>
<path d="M555.747 127.424C560.66 127.712 565.387 127.691 570.3 127.177C572.561 126.93 574.822 126.621 577.062 126.23C578.213 126.025 584.318 125.469 584.647 124.214C584.852 123.412 586.024 123.412 586.291 124.152C586.291 124.152 586.353 124.111 586.394 124.091C586.435 124.07 586.476 124.132 586.435 124.152C586.394 124.193 586.353 124.214 586.312 124.255C586.435 124.831 585.88 125.49 585.284 125.325C582.612 130.099 577.473 133.658 572.273 134.913C572.067 134.954 571.944 134.646 572.15 134.564C574.863 133.35 577.432 131.95 579.796 130.14C581.502 128.844 582.9 127.383 584.297 125.84C582.201 127.321 579.981 128.37 577.309 128.905C577.103 128.946 576.98 128.638 577.185 128.555C579.652 127.465 582.201 126.333 584.606 125.058C583.598 125.016 581.769 126.004 581.132 126.21C579.878 126.642 578.604 127.012 577.329 127.321C575.068 127.876 572.746 128.247 570.444 128.453C565.613 128.864 560.475 128.597 555.727 127.63C555.603 127.609 555.624 127.383 555.768 127.403L555.747 127.424Z" fill="#D9DDE1"/>
<path d="M555.007 122.424C560.865 123.905 566.723 124.893 572.766 124.173C578.501 123.494 584.051 121.601 589.374 119.42C589.498 119.379 589.58 119.523 589.477 119.605C584.482 122.897 578.748 124.399 572.849 124.831C566.888 125.263 560.578 124.831 554.966 122.65C554.843 122.609 554.884 122.424 555.028 122.445L555.007 122.424Z" fill="#D9DDE1"/>
<path d="M529.417 113.618C532.357 114.873 535.029 116.683 537.886 118.124C540.866 119.626 543.949 120.881 547.094 122.012C552.048 123.782 557.186 125.119 562.386 125.819C565.367 126.025 568.347 126.045 571.369 125.675C575.973 125.119 580.762 124.502 585.263 123.309C585.325 123.309 585.346 123.391 585.304 123.412C580.783 125.222 576.384 126.518 571.471 126.683C566.662 126.827 561.646 126.642 556.96 125.531C553.507 125.037 550.074 124.337 546.703 123.309C543.62 122.383 540.619 121.169 537.721 119.831C534.638 118.412 531.391 116.848 528.903 114.502C528.554 114.173 528.945 113.474 529.417 113.679V113.618Z" fill="#D9DDE1"/>
<path d="M578.974 129.481C578.974 129.481 579.097 129.543 579.035 129.605C575.336 131.868 571.533 133.884 567.381 135.14C563.27 136.395 558.933 136.765 554.658 136.847C554.596 136.847 554.576 136.744 554.658 136.724C562.859 135.88 571.697 133.308 578.994 129.461L578.974 129.481Z" fill="#D9DDE1"/>
<path d="M547.711 142.999C555.645 141.971 563.517 140.057 571.101 137.568C571.143 137.568 571.163 137.609 571.122 137.629C563.743 141.209 555.912 142.999 547.731 143.205C547.628 143.205 547.608 143.02 547.731 142.999H547.711Z" fill="#D9DDE1"/>
<path d="M553.918 120.654C563.558 120.51 573.26 119.482 582.489 116.539C591.8 113.556 600.844 108.7 608.49 102.61C608.51 102.61 608.551 102.61 608.531 102.651C594.04 115.593 573.486 123.576 553.918 121.148C553.61 121.107 553.61 120.654 553.918 120.654Z" fill="#D9DDE1"/>
<path d="M555.316 116.046C563.044 116.334 570.629 116.354 578.254 114.77C585.818 113.186 593.115 110.47 599.713 106.416C599.734 106.416 599.754 106.437 599.713 106.457C587.113 115.079 570.423 120.408 555.151 116.971C554.617 116.848 554.761 116.025 555.295 116.046H555.316Z" fill="#D9DDE1"/>
<path d="M571.369 113.618C577.925 112.404 584.359 111.169 590.649 108.926C597.082 106.622 603.248 103.536 609.065 99.9556C609.127 99.9144 609.209 100.017 609.147 100.058C598.541 108.001 584.749 113.638 571.389 113.926C571.204 113.926 571.184 113.638 571.348 113.618H571.369Z" fill="#D9DDE1"/>
<path d="M575.623 105.984C577.412 106.025 579.159 106.416 580.967 106.375C582.961 106.334 584.955 106.087 586.887 105.696C590.299 105.017 593.752 104.153 597 102.898C603.536 100.367 609.497 96.6224 616.506 95.4084C616.588 95.4084 616.609 95.5113 616.526 95.5319C609.23 97.7746 603.125 102.63 595.911 105.141C592.622 106.272 589.395 106.869 585.921 106.992C582.632 107.116 578.686 107.239 575.5 106.478C575.212 106.416 575.295 105.964 575.582 105.964L575.623 105.984Z" fill="#D9DDE1"/>
<path d="M583.208 100.532C589.497 100.347 595.253 98.7416 601.234 96.931C606.743 95.2644 612.642 93.6183 618.438 94.2767C618.5 94.2767 618.5 94.3796 618.438 94.3796C611.943 94.5854 606.147 96.8075 600.062 98.8445C594.698 100.635 588.799 102.404 583.105 101.17C582.735 101.087 582.858 100.552 583.208 100.552V100.532Z" fill="#D9DDE1"/>
<path d="M585.798 97.2602C594.348 96.8487 602.406 94.2973 610.442 91.4579C618.089 88.7625 626.125 86.5198 634.306 87.0959C634.327 87.0959 634.327 87.1371 634.306 87.1371C625.55 87.1988 617.472 90.7995 609.332 93.6801C601.789 96.3549 593.855 99.1326 585.736 97.5894C585.531 97.5483 585.613 97.2602 585.798 97.2602Z" fill="#D9DDE1"/>
<path d="M648.406 86.17C648.632 86.2317 648.858 86.2935 649.064 86.3552C648.838 86.2935 648.612 86.2317 648.406 86.17Z" fill="#D9DDE1"/>
<path d="M650.523 86.849C650.051 86.6638 649.557 86.4992 649.064 86.3552C649.557 86.4992 650.051 86.6227 650.544 86.7667C650.606 86.7667 650.564 86.8696 650.523 86.849Z" fill="#D9DDE1"/>
<path d="M592.91 93.7624C603.331 91.5814 613.238 87.4457 623.7 85.347C628.078 84.4623 632.723 83.6804 637.204 83.9479C641.027 84.1742 644.748 85.1412 648.427 86.1494C644.645 85.1412 640.719 85.2853 636.814 85.5116C632.045 85.7997 627.379 86.314 622.713 87.3222C617.821 88.3716 613.073 89.9559 608.202 91.067C603.146 92.2398 598.089 93.2274 592.951 93.9064C592.848 93.9064 592.807 93.7624 592.91 93.7418V93.7624Z" fill="#D9DDE1"/>
<path d="M596.671 86.1289C602.591 85.6556 608.469 85.1207 614.348 84.2359C619.712 83.4335 625.015 82.2813 630.421 81.8286C640.472 81.0056 650.235 82.0549 659.444 86.3758C650.071 82.5487 639.239 82.7545 629.291 83.6598C623.7 84.1742 618.13 84.6474 612.559 85.3059C607.298 85.9231 601.974 86.6227 596.671 86.3758C596.507 86.3758 596.527 86.1495 596.671 86.1289Z" fill="#D9DDE1"/>
<path d="M685.938 86.9107C685.486 86.6021 685.034 86.3141 684.561 86.026C685.034 86.2935 685.507 86.561 685.979 86.849C686.021 86.8696 685.979 86.9519 685.938 86.9313V86.9107Z" fill="#D9DDE1"/>
<path d="M682.609 84.9355C683.266 85.2647 683.924 85.6351 684.561 86.026C683.903 85.6556 683.266 85.3058 682.609 84.9355Z" fill="#D9DDE1"/>
<path d="M607.215 79.2772C613.443 79.8739 619.712 80.4295 625.961 79.8534C626.495 79.8122 627.03 79.7916 627.564 79.7505C627.4 79.7505 627.235 79.7505 627.071 79.7505C626.906 79.7505 626.886 79.483 627.05 79.4624C637.492 77.5283 648.201 76.5613 658.786 77.4872C663.493 77.8987 668.323 78.5777 672.763 80.2649C676.196 81.5817 679.443 83.1866 682.629 84.9355C679.423 83.2895 675.887 82.1784 672.414 81.4582C667.522 80.45 662.63 79.5036 657.635 79.1538C650.564 78.66 643.494 79.0509 636.423 79.4007C639.054 79.3801 641.664 79.4007 644.275 79.4418C655.58 79.6064 666.576 81.664 676.668 86.993C666.247 81.6228 653.915 81.2113 642.404 81.1702C630.771 81.129 618.685 81.8286 607.195 79.4624C607.092 79.4624 607.113 79.2772 607.215 79.2772Z" fill="#D9DDE1"/>
<path d="M627.009 66.6645C633.73 65.4711 641.109 66.7879 647.707 68.1871C654.696 69.6479 661.355 72.1375 667.707 75.4296C667.727 75.4296 667.707 75.4913 667.707 75.4708C661.17 73.1046 654.429 71.2528 647.625 69.8742C640.801 68.4957 633.854 68.4751 627.03 67.3229C626.68 67.2612 626.721 66.7056 627.03 66.6439L627.009 66.6645Z" fill="#D9DDE1"/>
<path d="M635.457 73.4338C641.274 73.4132 647.07 73.3104 652.846 74.0099C658.437 74.7095 663.74 76.2938 669.207 77.5489C663.534 76.5201 657.697 76.2732 651.983 75.6148C646.454 74.977 640.986 74.0099 635.436 73.5778C635.313 73.5778 635.334 73.3927 635.436 73.3927L635.457 73.4338Z" fill="#D9DDE1"/>
<path d="M622.097 72.5285C628.078 71.2322 634.368 70.4915 640.493 70.3681C646.7 70.2446 652.784 71.5409 658.807 72.9606C652.846 72.2199 646.844 72.2816 640.822 72.0758C634.532 71.8701 628.407 72.0758 622.138 72.7342C622.014 72.7342 621.953 72.5696 622.097 72.5285Z" fill="#D9DDE1"/>
<path d="M621.213 65.0802C634.388 62.9197 647.07 65.2448 659.834 68.5986C659.896 68.5986 659.875 68.722 659.814 68.7014C647.255 65.8209 634.059 65.7797 621.233 65.3065C621.11 65.3065 621.069 65.1007 621.213 65.0596V65.0802Z" fill="#D9DDE1"/>
<path d="M612.189 64.7715C626.536 59.9569 642.137 60.7593 656.505 65.0802C656.525 65.0802 656.505 65.1419 656.505 65.1213C641.89 62.0144 626.947 62.714 612.272 65.1213C612.046 65.1625 611.984 64.8538 612.189 64.7715Z" fill="#D9DDE1"/>
<path d="M603.413 64.4835C605.242 63.537 607.339 62.8992 609.291 62.179C611.45 61.3972 613.649 60.6359 615.848 59.998C620.226 58.7429 624.769 58.0228 629.291 57.7142C638.417 57.0969 647.502 58.3726 656.299 60.7182C647.543 58.7635 638.499 58.5577 629.578 59.3602C625.18 59.7511 620.822 60.4507 616.485 61.3149C614.348 61.7469 612.21 62.1996 610.113 62.8169C607.894 63.4753 605.818 64.4218 603.618 65.1213C603.228 65.2448 603.022 64.6481 603.372 64.4629L603.413 64.4835Z" fill="#D9DDE1"/>
<path d="M639.856 55.3068C639.856 55.3068 639.917 55.3891 639.856 55.3891C631.901 55.3068 623.988 56.5002 616.321 58.6606C608.613 60.8416 601.563 64.216 594.657 68.2077C594.451 68.3311 594.246 68.0225 594.41 67.8785C606.907 57.4878 623.926 53.4756 639.856 55.3068Z" fill="#D9DDE1"/>
<path d="M633.648 50.1835C633.648 50.1835 633.73 50.2864 633.648 50.307C626.598 51.6444 619.671 53.311 613.053 56.1504C606.64 58.9075 600.761 62.714 595.027 66.6233C594.801 66.7674 594.616 66.4381 594.759 66.2735C604.276 56.0681 619.754 49.8749 633.648 50.2041V50.1835Z" fill="#D9DDE1"/>
<path d="M621.706 47.6528C621.706 47.6528 621.727 47.6733 621.706 47.6939C608.12 52.632 595.561 61.1091 587.565 73.3927C587.483 73.5161 587.278 73.3927 587.36 73.2692C594.513 60.2861 606.784 50.1013 621.706 47.6528Z" fill="#D9DDE1"/>
<path d="M617.863 44.8134C617.965 44.7928 618.047 44.9574 617.924 44.9985C612.046 47.982 606.352 51.3564 601.316 55.6772C596.26 60.0186 592.231 65.2448 588.162 70.4915C588.059 70.6356 587.771 70.5533 587.853 70.3475C592.786 58.1668 605.324 48.1672 617.842 44.7928L617.863 44.8134Z" fill="#D9DDE1"/>
<path d="M612.642 44.6693C612.642 44.6693 612.765 44.7516 612.683 44.7928C606.537 48.2083 600.843 52.3028 595.767 57.1998C590.607 62.179 586.723 67.8167 583.742 74.3185C583.701 74.4008 583.557 74.3185 583.598 74.2568C588.634 61.0062 599.014 49.2576 612.642 44.6693Z" fill="#D9DDE1"/>
<path d="M606.763 45.2249C606.763 45.2249 606.825 45.266 606.784 45.266C602.899 47.5087 599.343 50.3482 596.198 53.5373C593.012 56.7677 590.649 60.4713 587.833 63.9897C587.668 64.1954 587.257 64.072 587.38 63.7839C590.628 55.4303 599.014 49.093 606.763 45.2043V45.2249Z" fill="#D9DDE1"/>
<path d="M608.038 42.262C608.038 42.262 608.12 42.3237 608.079 42.3649C602.878 45.3895 597.925 48.3935 593.608 52.6937C591.512 54.7719 589.58 57.0352 587.833 59.4013C586.949 60.6153 586.065 61.8293 585.304 63.1255C584.544 64.4423 584.153 65.9032 583.434 67.22C583.249 67.5492 582.715 67.3023 582.838 66.9525C583.311 65.5123 584.215 64.216 584.893 62.858C585.572 61.5206 586.27 60.1832 587.052 58.9075C588.655 56.315 590.587 53.9283 592.766 51.7884C596.979 47.6322 602.303 43.8669 608.058 42.2826L608.038 42.262Z" fill="#D9DDE1"/>
<path d="M601.419 42.5089C601.419 42.5089 601.542 42.5706 601.481 42.6118C596.363 45.9656 591.676 49.9778 587.689 54.6073C583.681 59.2573 580.618 64.4423 577.535 69.7302C577.412 69.936 577.042 69.7919 577.144 69.545C581.276 58.0639 591.06 48.4758 601.44 42.4883L601.419 42.5089Z" fill="#D9DDE1"/>
<path d="M595.397 44.9985C595.397 44.9985 595.54 45.0808 595.458 45.122C589.929 48.8873 585.14 53.702 581.255 59.1339C577.412 64.5041 575.171 70.3681 572.849 76.4996C572.725 76.8288 572.294 76.6847 572.335 76.3555C573.383 69.792 576.939 63.3313 580.844 58.0434C584.77 52.7349 589.744 48.3935 595.355 44.978L595.397 44.9985Z" fill="#D9DDE1"/>
<path d="M577.987 53.8871C577.987 53.8871 578.11 53.8871 578.152 53.9283C582.16 49.9778 586.825 46.7886 592.005 44.5047C592.087 44.4636 592.149 44.587 592.067 44.6282C586.065 47.8791 580.68 52.2411 576.281 57.4467C571.636 62.9403 568.82 69.113 566.107 75.7177C565.983 76.0469 565.531 75.9029 565.593 75.5737C566.847 68.8455 570.711 62.4259 575.068 57.2409C575.623 56.5825 576.199 55.9241 576.795 55.3068C573.568 58.2697 570.731 61.5412 568.368 65.2653C565.819 69.2981 563.99 73.619 561.729 77.7958C561.688 77.8575 561.585 77.837 561.605 77.7547C562.325 68.043 570.259 59.0516 577.987 53.8871Z" fill="#D9DDE1"/>
<path d="M588.059 48.7433C588.223 48.661 588.326 48.8873 588.182 48.9696C584.359 51.6032 581.276 54.5661 578.604 58.3726C576.261 61.7264 574.596 65.4505 572.335 68.8249C572.253 68.9484 572.026 68.9072 572.026 68.7426C572.294 64.6687 574.801 60.4301 577.37 57.3849C580.289 53.9283 584.071 50.8831 588.059 48.7433Z" fill="#D9DDE1"/>
<path d="M557.474 55.3068C562.674 52.0559 568.388 48.6404 574.349 46.9943C574.452 46.9738 574.534 46.9943 574.596 47.0149C574.842 46.912 575.089 46.7886 575.336 46.6857C575.521 46.624 575.706 46.6857 575.829 46.8092C576.096 46.6651 576.343 46.5211 576.631 46.3977C576.898 46.2742 577.186 46.624 576.939 46.8503C569.539 53.3522 563.661 60.9651 561.4 70.7384C561.4 70.8001 561.277 70.7796 561.277 70.7384C561.729 64.6069 564.031 58.352 567.895 53.4756C566.991 54.2369 566.086 55.0188 565.223 55.8624C561.831 59.175 558.831 62.9815 556.549 67.1377C556.487 67.2406 556.364 67.1377 556.405 67.0554C558.296 63.002 560.824 58.8252 563.928 55.2245C558.481 59.71 553.322 64.5041 548.122 69.3187C548.019 69.4216 547.834 69.2776 547.916 69.1541C552.849 62.9815 559.057 57.7347 565.655 53.3522C566.415 52.5909 567.176 51.8502 567.998 51.1712C564.75 52.776 561.462 54.3192 558.317 56.1298C552.829 59.2985 547.505 62.8374 542.49 66.7262C542.408 66.7879 542.264 66.6645 542.367 66.5822C547.135 62.4465 552.089 58.6812 557.433 55.3274L557.474 55.3068Z" fill="#D9DDE1"/>
<path d="M575.418 45.7598C575.418 45.7598 575.521 45.8627 575.438 45.8833C560.228 48.7638 546.745 57.5496 535.378 67.7344C535.172 67.9196 534.782 67.6521 534.967 67.4052C544.854 54.7101 559.858 48.1672 575.397 45.7598H575.418Z" fill="#D9DDE1"/>
<path d="M528.246 61.7881C531.843 59.1956 535.604 56.85 539.53 54.7924C547.526 50.6156 555.891 48.1054 564.771 46.6651C564.832 46.6651 564.873 46.7474 564.791 46.768C556.343 48.8461 548.019 52.2411 540.332 56.315C536.447 58.3726 532.685 60.6976 529.129 63.2695C525.779 65.6974 522.717 68.5368 519.305 70.8619C518.976 71.0882 518.523 70.5944 518.75 70.2858C521.339 66.9114 524.813 64.2366 528.225 61.7675L528.246 61.7881Z" fill="#D9DDE1"/>
<path d="M523.189 59.9158C527.793 56.7677 532.665 53.9694 537.762 51.7473C542.942 49.484 548.389 48.1672 553.877 46.8709C548.553 48.3935 543.497 50.7802 538.502 53.1464C533.59 55.492 528.821 58.1463 524.299 61.212C515.132 67.4464 507.753 75.3268 500.436 83.5569C500.168 83.845 499.696 83.4541 499.901 83.1249C505.533 73.7219 514.207 66.0267 523.169 59.8952L523.189 59.9158Z" fill="#D9DDE1"/>
<path d="M508.719 60.7388C512.892 57.7553 517.372 55.1628 522.079 53.1258C526.951 51.0271 531.884 49.9984 537.084 49.093C537.166 49.093 537.187 49.1959 537.105 49.2165C532.233 50.4305 527.424 52.5292 522.86 54.6073C518.4 56.6237 514.125 59.031 510.137 61.8498C501.792 67.7138 494.824 75.1827 489.008 83.5158C488.843 83.7421 488.514 83.5364 488.638 83.2895C493.365 74.2774 500.477 66.6028 508.719 60.7182V60.7388Z" fill="#D9DDE1"/>
<path d="M523.374 56.7265C523.374 56.7265 523.477 56.7883 523.415 56.8088C513.118 62.2613 504.793 70.615 497.496 79.5653C497.25 79.8533 496.818 79.4624 497.003 79.1538C502.882 68.722 512.604 61.5 523.374 56.7265Z" fill="#D9DDE1"/>
<path d="M537.721 61.5206C537.721 61.5206 537.865 61.6029 537.783 61.6441C528.431 67.8784 521.709 76.7053 516.098 86.2729C515.893 86.6227 515.317 86.3758 515.44 85.9848C519.222 75.1827 527.876 66.8497 537.721 61.5206Z" fill="#D9DDE1"/>
<path d="M499.202 63.1049C503.827 59.6277 508.925 56.9323 514.084 54.3398C514.145 54.3192 514.187 54.4015 514.125 54.4221C504.403 59.4837 495.585 67.3023 488.453 75.5531C481.012 84.1536 475.133 93.9064 471.105 104.564C471.022 104.791 470.694 104.688 470.755 104.462C473.962 93.6389 479.45 83.4335 486.788 74.8741C490.508 70.5327 494.639 66.541 499.223 63.1049H499.202Z" fill="#D9DDE1"/>
<path d="M500.6 59.3808C500.6 59.3808 500.744 59.4631 500.662 59.5042C494.763 63.6193 489.48 68.3105 484.753 73.7219C480.066 79.1126 476.428 85.1001 472.544 91.067C472.338 91.3756 471.804 91.1699 471.927 90.7995C474.229 84.0507 478.586 78.0427 483.355 72.8371C488.268 67.4875 494.228 62.8786 500.58 59.3602L500.6 59.3808Z" fill="#D9DDE1"/>
<path d="M497.599 58.3726C497.599 58.3726 497.681 58.4137 497.64 58.4549C479.306 70.9853 464.733 90.1822 460.355 112.239C460.355 112.321 460.211 112.28 460.211 112.198C463.849 89.709 476.983 68.8661 497.599 58.3726Z" fill="#D9DDE1"/>
<path d="M488.72 60.8828C488.843 60.8005 488.946 60.9857 488.864 61.0885C484.958 65.3888 480.662 69.3599 476.839 73.763C472.914 78.2896 469.378 83.166 466.274 88.2893C460.088 98.4947 455.751 109.42 452.709 120.943C452.668 121.128 452.318 121.087 452.359 120.881C454.168 109.091 458.628 97.5688 464.795 87.384C470.776 77.5078 478.689 66.932 488.74 60.9034L488.72 60.8828Z" fill="#D9DDE1"/>
<path d="M468.885 76.3555C471.639 72.4873 474.661 68.7426 478.155 65.5534C478.278 65.43 478.484 65.5946 478.401 65.7386C475.092 70.6356 471.413 75.2445 468.124 80.162C464.897 84.9766 461.979 89.9765 459.224 95.0998C453.531 105.696 449.399 116.766 446.255 128.37C446.213 128.494 446.028 128.432 446.07 128.309C448.495 116.725 452.626 105.305 457.827 94.6883C460.437 89.3798 463.479 84.2565 466.809 79.3595C466.994 79.0921 467.179 78.8246 467.364 78.5365C464.856 81.7257 462.122 84.7503 459.718 88.0012C456.778 91.9723 454.147 96.1697 451.886 100.573C447.2 109.626 443.911 118.947 441.918 128.926C441.897 129.07 441.65 129.029 441.671 128.885C442.719 118.967 445.679 108.865 450.242 99.9967C452.606 95.3878 455.36 90.9641 458.484 86.8079C461.424 82.9191 464.61 79.0303 468.659 76.2527C468.761 76.1909 468.864 76.2527 468.905 76.3555H468.885Z" fill="#D9DDE1"/>
<path d="M461.896 75.1416C452.894 84.2771 445.576 95.7582 440.17 107.342C437.416 113.227 435.196 119.379 433.49 125.675C431.805 131.93 431.044 138.308 429.749 144.625C429.647 145.18 428.845 144.995 428.825 144.481C428.66 137.897 430.181 131.148 431.908 124.831C433.593 118.638 435.834 112.609 438.526 106.787C441.301 100.82 444.569 95.0586 448.474 89.7501C452.4 84.38 457.004 79.627 461.773 74.9975C461.855 74.9152 461.979 75.0387 461.896 75.1416Z" fill="#D9DDE1"/>
<path d="M450.9 78.4131C450.9 78.4131 451.064 78.4748 451.023 78.5365C448.413 82.7545 444.939 86.4581 442.205 90.6143C439.431 94.8529 436.985 99.3177 434.991 103.968C433.079 108.474 431.538 113.165 430.448 117.939C429.318 122.835 429.071 127.835 428.085 132.753C427.982 133.247 427.139 133.226 427.098 132.732C426.564 127.918 427.571 122.835 428.619 118.165C429.791 112.918 431.455 107.774 433.614 102.836C435.649 98.1655 438.094 93.6595 440.972 89.4415C443.685 85.4704 446.851 81.0879 450.9 78.3925V78.4131Z" fill="#D9DDE1"/>
<path d="M230.599 313.981C242.582 314.372 255.326 316.018 265.747 322.397C274.462 327.726 281.08 336.944 281.018 347.458C281.018 347.499 280.957 347.499 280.957 347.458C280.361 336.779 272.427 328.035 263.424 323.076C253.352 317.52 241.616 316.553 230.517 314.516C230.229 314.455 230.311 314.002 230.599 314.002V313.981Z" fill="#D9DDE1"/>
<path d="M283.896 336.018C283.896 336.018 283.896 336.099 283.855 336.059C283.835 336.018 283.855 335.977 283.896 336.018Z" fill="#D9DDE1"/>
<path d="M238.081 312.294C245.973 311.327 254.401 313.92 261.533 317.109C269.385 320.627 275.674 325.998 281.265 332.458C281.286 332.479 281.265 332.52 281.224 332.499C275.715 326.677 268.542 322.191 261.266 318.899C257.587 317.232 253.743 315.916 249.796 314.99C245.932 314.084 241.965 313.693 238.039 312.994C237.69 312.932 237.711 312.335 238.039 312.294H238.081Z" fill="#D9DDE1"/>
<path d="M257.977 314.434C266.199 314.619 273.681 319.413 277.956 326.327C277.997 326.388 277.894 326.45 277.853 326.388C273.228 319.681 265.973 315.73 257.977 314.743C257.792 314.722 257.792 314.434 257.977 314.455V314.434Z" fill="#D9DDE1"/>
<path d="M244.822 302.665C254.339 303.756 263.63 305.113 271.666 310.813C278.531 315.689 284.019 323.405 284.78 331.964C284.78 331.985 284.739 331.985 284.739 331.964C281.368 313.611 261.327 305.422 244.802 302.953C244.617 302.933 244.617 302.644 244.802 302.665H244.822Z" fill="#D9DDE1"/>
<path d="M229.879 300.031C251.646 295.422 274.421 304.784 287.431 322.623C287.473 322.685 287.39 322.767 287.349 322.705C273.496 306.41 251.071 298.036 229.941 300.34C229.735 300.361 229.674 300.072 229.879 300.031Z" fill="#D9DDE1"/>
<path d="M323.751 328.755C323.751 328.755 323.792 328.796 323.751 328.816C320.524 329.886 317.297 330.997 314.029 331.985C313.946 332.006 313.926 331.903 314.008 331.862C317.235 330.75 320.483 329.763 323.73 328.755H323.751Z" fill="#D9DDE1"/>
<path d="M331.459 313.117C336.577 311.142 342.085 309.764 347.573 309.496C347.697 309.496 347.717 309.702 347.594 309.722C342.024 310.875 336.597 312.274 331.356 314.516C326.3 316.677 321.798 319.681 317.03 322.335C316.721 322.5 316.434 322.088 316.68 321.841C320.729 317.829 326.197 315.134 331.459 313.097V313.117Z" fill="#D9DDE1"/>
<path d="M351.828 306.06C351.828 306.06 351.91 306.142 351.849 306.163C339.722 308.694 328.047 313.632 317.379 319.907C317.256 319.969 317.132 319.804 317.235 319.722C327.348 311.924 339.167 307.521 351.828 306.06Z" fill="#D9DDE1"/>
<path d="M359.988 295.484C359.988 295.484 360.132 295.608 360.029 295.649C344.634 299.599 329.938 305.854 317.091 315.298C316.947 315.401 316.762 315.216 316.906 315.093C329.033 304.578 343.976 297.315 360.009 295.484H359.988Z" fill="#D9DDE1"/>
<path d="M324.655 304.229C326.382 302.809 328.17 301.472 330.02 300.217C334.131 297.439 338.488 295.032 342.949 292.892C351.787 288.694 361.18 286.163 370.8 284.62C370.882 284.62 370.923 284.744 370.841 284.764C361.324 286.781 352.116 290.279 343.401 294.558C340.215 296.122 337.111 297.85 334.09 299.702C335.693 298.817 337.337 297.974 338.982 297.192C347.368 293.241 356.453 290.587 365.579 289.106C365.702 289.106 365.743 289.27 365.62 289.291C356.453 291.328 347.758 294.558 339.372 298.776C335.364 300.793 331.479 303.077 327.677 305.463C325.827 306.615 324.039 307.829 322.23 309.064C320.216 310.443 318.489 312.191 316.454 313.488C316.064 313.735 315.755 313.179 316.022 312.87C316.947 311.821 318.078 310.875 319.229 309.969C318.88 310.031 318.612 309.496 318.9 309.187C320.586 307.315 322.723 305.813 324.655 304.208V304.229Z" fill="#D9DDE1"/>
<path d="M373.533 278.674C373.677 278.674 373.698 278.9 373.554 278.941C355.939 281.904 339.927 289.353 325.827 300.217C325.621 300.381 325.354 300.114 325.539 299.928C338.098 287.233 355.795 279.723 373.533 278.674Z" fill="#D9DDE1"/>
<path d="M337.42 288.571C338.653 287.604 339.927 286.678 341.243 285.814C343.976 284.044 346.936 282.563 349.937 281.287C356.042 278.653 362.434 277.09 369.011 276.287C369.094 276.287 369.135 276.39 369.032 276.411C362.557 277.748 356.247 279.95 350.266 282.748C347.409 284.085 344.675 285.628 341.962 287.213C340.667 287.974 339.352 288.715 338.077 289.517C336.577 290.464 335.323 291.698 333.781 292.562C333.35 292.809 333 292.233 333.288 291.883C334.46 290.587 336.022 289.661 337.399 288.571H337.42Z" fill="#D9DDE1"/>
<path d="M349.67 277.193C357.85 274.168 366.648 272.563 375.383 272.81C375.486 272.81 375.486 272.975 375.383 272.975C366.627 273.674 358.035 275.444 349.834 278.674C341.962 281.781 335.076 286.246 328.088 290.916C327.78 291.122 327.492 290.649 327.718 290.402C333.699 284.353 341.756 280.094 349.67 277.193Z" fill="#D9DDE1"/>
<path d="M376.349 266.823C376.555 266.823 376.575 267.131 376.39 267.172C369.525 268.469 362.722 270.361 356.124 272.707C349.32 275.114 342.969 278.448 336.412 281.431C336.104 281.575 335.734 281.143 336.042 280.917C347.306 272.275 362.414 268.036 376.349 266.823Z" fill="#D9DDE1"/>
<path d="M359.207 262.79C365.353 260.115 372.012 257.913 378.693 257.276C378.795 257.276 378.795 257.42 378.693 257.461C372.033 259.477 365.456 261.37 359.125 264.353C357.727 265.012 356.371 265.711 355.035 266.452C356.124 266 357.234 265.567 358.323 265.156C365.456 262.522 372.917 260.938 380.522 260.794C380.666 260.794 380.686 261.041 380.542 261.061C373.575 261.926 366.668 263.428 360.132 265.958C363.462 264.909 366.874 264.168 370.347 263.839C370.471 263.839 370.491 264.024 370.368 264.065C365.024 265.341 359.783 266.946 354.808 269.312C350.019 271.596 345.785 274.682 341.222 277.357C340.893 277.563 340.605 277.09 340.832 276.822C341.325 276.287 341.859 275.773 342.414 275.258C341.489 275.814 340.564 276.39 339.639 276.946C339.311 277.151 339.002 276.658 339.249 276.411C339.948 275.711 340.688 275.053 341.448 274.415C341.263 274.312 341.16 274.045 341.345 273.859C346.258 268.962 352.856 265.526 359.166 262.79H359.207Z" fill="#D9DDE1"/>
<path d="M359.598 258.88C365.024 256.782 370.717 255.28 376.493 254.621C376.617 254.621 376.678 254.786 376.534 254.827C370.8 256.062 365.188 257.728 359.803 260.115C357.234 261.267 354.706 262.543 352.239 263.921C349.793 265.3 347.45 266.946 344.922 268.16C344.511 268.345 344.141 267.851 344.47 267.522C348.437 263.489 354.377 260.897 359.577 258.88H359.598Z" fill="#D9DDE1"/>
<path d="M364.901 254.086C369.628 252.42 374.52 251.082 379.494 250.444C379.618 250.444 379.659 250.609 379.535 250.63C374.808 251.844 370.121 253.119 365.517 254.827C360.934 256.535 356.638 258.86 352.116 260.691C351.808 260.814 351.623 260.444 351.89 260.259C355.754 257.481 360.44 255.691 364.901 254.107V254.086Z" fill="#D9DDE1"/>
<path d="M386.277 245.424C386.442 245.424 386.462 245.671 386.298 245.712C380.44 246.473 374.664 247.975 369.176 250.156C363.811 252.296 359.063 255.424 354.089 258.304C353.719 258.531 353.37 257.996 353.657 257.708C361.735 249.272 374.911 245.465 386.277 245.424Z" fill="#D9DDE1"/>
<path d="M374.253 242.235C379.823 240.136 385.66 238.902 391.58 238.428C391.662 238.428 391.662 238.552 391.58 238.572C385.599 239.581 379.741 241.309 374.15 243.675C368.703 246 363.935 249.313 358.734 252.09C358.323 252.317 357.933 251.761 358.262 251.432C362.557 247.152 368.642 244.334 374.232 242.235H374.253Z" fill="#D9DDE1"/>
<path d="M384.879 229.869C394.293 225.425 404.899 222.071 415.259 220.919C415.3 220.919 415.3 220.96 415.259 220.98C410.12 222.277 404.982 223.47 399.987 225.281C395.115 227.05 390.326 229.108 385.64 231.35C381.94 233.141 378.364 235.136 374.869 237.276C384.838 232.297 396.081 229.602 406.893 229.766C406.975 229.766 406.996 229.91 406.893 229.931C398.055 231.083 389.586 232.996 381.303 236.371C372.999 239.745 365.497 244.272 358.262 249.498C358.056 249.663 357.768 249.395 357.974 249.189C358.467 248.696 359.002 248.222 359.515 247.749C359.371 247.873 359.207 247.975 359.063 248.078C358.817 248.263 358.508 247.955 358.734 247.729C366.237 240.198 375.281 234.396 384.859 229.848L384.879 229.869Z" fill="#D9DDE1"/>
<path d="M392.526 222.812C400.069 219.458 407.818 217.174 415.855 215.281C416.019 215.24 416.081 215.487 415.916 215.549C408.085 217.874 400.377 221.083 392.957 224.499C385.681 227.853 379.001 232.297 371.786 235.733C371.457 235.898 371.087 235.445 371.396 235.177C377.377 229.787 385.229 226.083 392.526 222.832V222.812Z" fill="#D9DDE1"/>
<path d="M414.354 211.557C414.478 211.557 414.539 211.742 414.395 211.763C407.571 212.997 400.706 215.507 394.499 218.573C388.127 221.721 382.516 225.836 376.863 230.095C376.617 230.281 376.349 229.992 376.555 229.766C385.825 218.635 400.336 213.038 414.354 211.557Z" fill="#D9DDE1"/>
<path d="M409.668 208.759C409.791 208.759 409.832 208.923 409.709 208.944C402.967 210.631 397.068 214.335 390.573 216.639C390.326 216.721 390.182 216.372 390.347 216.207C395.506 211.331 402.926 209.808 409.668 208.738V208.759Z" fill="#D9DDE1"/>
<path d="M413.039 204.026C420.808 202.36 428.701 202.03 436.594 202.668C436.697 202.668 436.697 202.833 436.594 202.833C428.804 202.833 420.993 203.82 413.409 205.59C405.783 207.38 398.63 210.384 391.333 213.141C390.984 213.265 390.758 212.853 391.066 212.627C397.561 208.162 405.393 205.631 413.059 204.006L413.039 204.026Z" fill="#D9DDE1"/>
<path d="M399.781 205.22C409.771 198.944 422.638 196.784 434.251 197.216C434.415 197.216 434.395 197.463 434.251 197.463C428.27 198.018 422.329 199.047 416.492 200.508C410.881 201.928 405.495 204.006 400.007 205.837C399.637 205.96 399.473 205.405 399.781 205.22Z" fill="#D9DDE1"/>
<path d="M418.28 193.368C423.706 192.01 429.194 191.99 434.703 192.73C434.847 192.73 434.847 192.977 434.703 192.957C429.421 192.483 424.015 193.121 418.897 194.459C413.655 195.817 409.175 198.409 404.365 200.755C404.036 200.919 403.728 200.487 403.995 200.24C407.839 196.66 413.285 194.623 418.301 193.368H418.28Z" fill="#D9DDE1"/>
<path d="M446.81 188.883C446.912 188.903 446.892 189.088 446.789 189.068C440.602 188.492 434.415 188.533 428.27 189.582C422.103 190.632 416.327 192.833 410.531 195.117C410.141 195.282 409.873 194.788 410.223 194.541C420.356 187.381 434.991 185.714 446.81 188.883Z" fill="#D9DDE1"/>
<path d="M437.437 184.87C437.437 184.87 437.519 185.035 437.437 185.035C434.189 185.488 431.003 185.673 427.797 186.496C424.631 187.319 421.672 188.656 418.588 189.706C418.301 189.809 418.075 189.356 418.301 189.191C423.234 185.426 431.353 183.677 437.437 184.87Z" fill="#D9DDE1"/>
<path d="M424.035 183.204C433.449 177.402 446.111 176.743 456.737 178.492C456.819 178.492 456.799 178.657 456.717 178.657C451.105 178.142 445.453 178.41 439.903 179.418C436.985 179.953 434.148 180.776 431.332 181.681C435.114 180.838 439.081 180.673 442.966 181.002C442.986 181.002 442.986 181.043 442.966 181.043C435.258 180.858 428.146 183.368 421.322 186.681C421.076 186.805 420.808 186.455 421.034 186.29C422.514 185.179 424.097 184.274 425.741 183.533C425.269 183.698 424.796 183.842 424.323 184.006C423.83 184.171 423.624 183.451 424.015 183.204H424.035Z" fill="#D9DDE1"/>
<path d="M459.512 173.821C459.512 173.821 459.615 173.986 459.512 173.986C453.592 173.636 447.734 174.048 441.938 175.262C436.142 176.476 430.654 178.636 425.207 180.858C424.981 180.941 424.837 180.673 425.042 180.529C434.847 173.821 447.981 172.073 459.533 173.821H459.512Z" fill="#D9DDE1"/>
<path d="M436.327 172.525C437.457 172.031 438.629 171.599 439.801 171.208C439.574 171.085 439.451 170.776 439.718 170.571C445.062 166.229 452.852 164.521 459.594 164.521C459.697 164.521 459.718 164.686 459.594 164.707C456.306 165.303 453.099 166.065 449.934 167.176C447.138 168.143 444.487 169.439 441.774 170.612C442.575 170.385 443.377 170.159 444.179 169.974C449.584 168.698 455.216 168.266 460.725 168.945C460.786 168.945 460.786 169.048 460.725 169.048C455.216 169.11 449.769 169.665 444.446 171.126C441.774 171.846 439.163 172.772 436.615 173.842C434.312 174.809 432.154 176.229 429.832 177.072C429.421 177.216 429.153 176.62 429.441 176.352C431.27 174.706 434.045 173.513 436.306 172.546L436.327 172.525Z" fill="#D9DDE1"/>
<path d="M448.968 163.287C448.783 163.143 448.701 162.896 448.927 162.69C450.489 161.312 452.236 160.139 454.127 159.131C454.004 158.987 453.962 158.781 454.127 158.637C457.148 156.106 460.478 153.966 463.972 152.135C472.42 145.551 483.478 141.271 494.023 140.283C494.126 140.283 494.126 140.428 494.023 140.448C488.411 142.135 482.821 143.884 477.415 146.23C476.531 146.621 475.647 147.032 474.763 147.444C481.238 145.16 488.144 143.514 495.009 143.267C495.071 143.267 495.092 143.37 495.009 143.39C487.692 144.79 480.56 146.415 473.633 149.213C467.837 151.538 462.431 154.542 457.087 157.711C459.944 156.476 462.945 155.53 465.822 154.769C471.947 153.164 478.648 152.423 484.958 153.081C485.082 153.081 485.061 153.246 484.958 153.267C478.648 153.616 472.605 154.378 466.521 156.168C461.65 157.608 457.231 159.851 452.667 161.929C453.695 161.6 454.723 161.27 455.73 161.003C460.314 159.768 466.089 158.657 470.796 159.666C470.879 159.666 470.879 159.83 470.796 159.83C468.494 160.283 466.069 160.283 463.746 160.653C461.28 161.044 458.813 161.6 456.408 162.279C451.455 163.698 447.036 166.023 442.349 168.081C442 168.225 441.609 167.772 441.938 167.505C444.014 165.756 446.44 164.398 448.968 163.307V163.287Z" fill="#D9DDE1"/>
<path d="M489.46 121.354C490.138 128.185 485.842 134.111 480.683 138.247C486.973 133.823 496.325 133.411 503.519 134.502C503.622 134.502 503.622 134.666 503.519 134.666C499.264 134.275 494.989 134.666 490.857 135.736C486.89 136.765 483.376 138.679 479.573 140.098C479.203 140.242 478.936 139.666 479.203 139.419C479.306 139.316 479.45 139.234 479.553 139.131C479.368 139.275 479.162 139.419 478.977 139.563C478.792 139.707 478.607 139.399 478.751 139.234C483.458 133.987 489.83 129.214 489.316 121.333C489.316 121.231 489.46 121.231 489.48 121.333L489.46 121.354Z" fill="#D9DDE1"/>
<path d="M489.131 133.206C496.078 128.988 504.444 128.206 512.357 129.296C512.439 129.296 512.439 129.44 512.357 129.44C504.382 129.152 496.818 131.189 489.336 133.74C489.008 133.843 488.864 133.37 489.131 133.206Z" fill="#D9DDE1"/>
<path d="M499.901 117.527C501.813 118.535 500.682 120.716 499.963 122.198C498.874 124.482 497.538 126.786 495.79 128.679C496.181 128.535 496.571 128.391 496.962 128.247C498.874 127.486 500.867 126.951 502.882 126.539C506.623 125.778 510.343 125.634 514.145 125.695C514.228 125.695 514.228 125.819 514.145 125.819C510.425 125.922 506.705 126.56 503.108 127.465C501.463 127.876 499.84 128.37 498.236 128.885C496.53 129.44 494.886 130.366 493.159 130.778C492.81 130.86 492.481 130.346 492.81 130.119C493.139 129.893 493.468 129.687 493.817 129.502C495.873 126.848 502.347 119.255 499.84 117.63C499.757 117.568 499.84 117.445 499.922 117.486L499.901 117.527Z" fill="#D9DDE1"/>
<path d="M503.354 117.198C503.354 117.198 503.416 117.177 503.416 117.198C503.046 119.482 502.203 121.663 500.908 123.556C505.739 120.86 511.946 120.572 517.229 121.251V121.272C514.063 121.045 510.857 121.333 507.753 122.074C505.019 122.733 502.512 123.864 499.901 124.831C499.47 125.325 499.017 125.798 498.524 126.23C498.339 126.395 498.134 126.148 498.277 125.963C498.586 125.613 498.874 125.263 499.161 124.893C499.12 124.811 499.1 124.687 499.202 124.626C499.326 124.543 499.449 124.461 499.552 124.379C501.217 122.177 502.491 119.873 503.354 117.136V117.198Z" fill="#D9DDE1"/>
<path d="M298.695 289.291C306.218 304.434 305.971 321.697 298.346 336.759C298.346 336.8 298.284 336.758 298.284 336.717C304.861 322.129 304.779 304.085 298.387 289.456C298.305 289.25 298.592 289.085 298.695 289.291Z" fill="#D9DDE1"/>
<path d="M305.375 288.447C307.986 291.883 309.404 296.554 310.185 300.731C311.007 305.072 311.089 309.62 310.185 313.982C310.144 314.208 309.753 314.146 309.774 313.92C310.103 309.558 310.103 305.257 309.281 300.937C308.459 296.554 306.691 292.727 305.088 288.612C305.026 288.468 305.211 288.283 305.334 288.447H305.375Z" fill="#D9DDE1"/>
<path d="M308.417 280.629C312.939 287.912 314.543 298.488 312.138 306.739C312.055 307.048 311.521 306.986 311.562 306.657C311.953 302.13 312.261 297.706 311.685 293.159C311.11 288.818 309.753 284.805 308.273 280.69C308.232 280.587 308.397 280.546 308.438 280.629H308.417Z" fill="#D9DDE1"/>
<path d="M312.282 275.855C317.441 283.674 318.982 294.064 315.159 302.809C315.036 303.097 314.604 302.974 314.686 302.665C317.502 293.715 316.989 284.106 312.097 275.958C312.035 275.855 312.199 275.752 312.282 275.855Z" fill="#D9DDE1"/>
<path d="M319.147 270.053C322.785 277.913 323.586 287.213 320.092 295.278C319.948 295.587 319.496 295.484 319.578 295.134C321.428 286.822 321.613 278.324 318.859 270.156C318.797 269.991 319.065 269.888 319.147 270.053Z" fill="#D9DDE1"/>
<path d="M323.648 263.921C326.67 272.357 326.978 282.151 323.114 290.402C322.99 290.669 322.579 290.464 322.661 290.196C325.107 281.513 325.909 272.769 323.484 263.963C323.463 263.86 323.607 263.819 323.648 263.921Z" fill="#D9DDE1"/>
<path d="M328.478 259.086C331.15 268.325 330.39 277.604 326.135 286.225C326.032 286.431 325.683 286.266 325.765 286.061C329.403 277.769 330.369 267.954 328.273 259.127C328.252 259.004 328.437 258.963 328.478 259.086Z" fill="#D9DDE1"/>
<path d="M332.671 250.815C336.001 260.156 336.412 271.287 331.932 280.361C331.705 280.834 330.986 280.485 331.109 279.991C333.761 270.32 334.932 260.732 332.507 250.835C332.486 250.733 332.63 250.691 332.671 250.794V250.815Z" fill="#D9DDE1"/>
<path d="M345.518 236.659C346.011 241.515 345.867 246.453 344.922 251.247C343.976 256.082 342.229 261.432 339.434 265.526C339.372 265.609 339.31 265.67 339.228 265.691C338.427 268.242 337.42 270.732 336.207 273.077C336.104 273.263 335.796 273.119 335.857 272.933C337.461 268.489 338.817 264.065 339.66 259.415C340.523 254.56 340.441 249.704 340.955 244.827C340.955 244.704 341.14 244.683 341.16 244.807C342.209 249.354 341.654 254.477 340.852 259.024C340.708 259.868 340.523 260.691 340.338 261.535C340.893 260.424 341.428 259.312 341.88 258.119C342.702 255.897 343.421 253.654 343.997 251.37C345.168 246.556 345.621 241.659 345.312 236.7C345.312 236.577 345.518 236.556 345.538 236.679L345.518 236.659Z" fill="#D9DDE1"/>
<path d="M352.075 229.581C352.856 239.786 350.841 250.63 345.292 259.354C345.045 259.724 344.531 259.395 344.716 259.004C348.992 249.621 351.808 239.972 351.869 229.581C351.869 229.437 352.075 229.458 352.075 229.581Z" fill="#D9DDE1"/>
<path d="M359.043 217.791C360.009 225.054 359.474 232.811 357.069 239.869C362.701 231.844 366.442 222.853 366.257 212.874C366.257 212.689 366.545 212.689 366.545 212.874C367.223 222.812 364.346 233.429 357.152 240.609C357.028 240.733 356.884 240.671 356.782 240.568C355.713 243.531 354.315 246.371 352.547 248.963C352.28 249.375 351.705 249.004 351.91 248.572C356.597 238.84 359.454 228.717 358.673 217.791C358.673 217.585 359.002 217.565 359.022 217.75L359.043 217.791Z" fill="#D9DDE1"/>
<path d="M382.845 196.331C382.968 206.701 378.466 217.524 371.725 225.301C370.183 229.272 367.984 232.935 365.353 235.836C365.086 236.124 364.572 235.733 364.798 235.383C367.593 231.227 369.998 226.906 371.499 222.112C373.02 217.236 373.246 212.4 373.513 207.339C373.513 207.236 373.657 207.215 373.677 207.339C374.787 212.565 374.13 218.45 372.239 223.882C374.952 219.972 377.233 215.837 378.96 211.351C379.864 208.985 380.625 206.557 381.18 204.088C381.488 202.709 381.755 201.31 381.94 199.911C382.043 199.232 382.043 198.43 382.187 197.751C382.31 197.216 382.68 196.496 382.166 197.545C382.084 197.71 381.858 197.545 381.92 197.401L382.351 196.249C382.433 196.002 382.803 196.064 382.803 196.331H382.845Z" fill="#D9DDE1"/>
<path d="M390.059 192.607C389.997 197.277 388.271 202.195 386.339 206.392C384.242 210.96 381.385 215.075 377.829 218.635C377.459 219.005 376.987 218.45 377.295 218.059C380.337 214.376 382.988 210.363 385.085 206.063C387.223 201.681 388.271 197.175 389.669 192.545C389.73 192.319 390.08 192.381 390.08 192.607H390.059Z" fill="#D9DDE1"/>
<path d="M397.808 186.455C397.623 191.516 396.575 196.701 394.643 201.495C397.089 198.245 399.226 194.829 400.706 191.002C401.385 189.253 401.939 187.442 402.33 185.611C402.782 183.554 402.782 181.434 403.275 179.397C403.275 179.315 403.399 179.336 403.419 179.397C404.303 183.224 403.029 188.06 401.734 191.66C400.295 195.631 398.075 199.314 395.054 202.257C394.828 202.463 394.499 202.318 394.396 202.092C392.608 206.31 390.08 210.199 386.77 213.347C386.483 213.614 385.948 213.223 386.195 212.894C392.176 204.973 396.636 196.475 397.582 186.434C397.582 186.29 397.808 186.311 397.788 186.434L397.808 186.455Z" fill="#D9DDE1"/>
<path d="M408.25 173.677C409.38 185.549 402.721 198.882 393.368 205.94C393.122 206.125 392.793 205.816 393.019 205.569C397.274 201.372 400.912 196.763 403.522 191.352C406.276 185.652 407.325 179.891 408.126 173.657C408.126 173.575 408.25 173.575 408.25 173.657V173.677Z" fill="#D9DDE1"/>
<path d="M414.704 171.702C414.066 181.702 410.326 191.249 403.049 198.306C402.844 198.512 402.556 198.203 402.741 197.977C409.072 190.59 413.573 181.496 414.498 171.702C414.498 171.579 414.704 171.579 414.704 171.702Z" fill="#D9DDE1"/>
<path d="M422.987 161.476C424.015 171.229 419.39 182.196 412.998 189.335C412.648 189.726 412.011 189.191 412.299 188.759C415.033 184.582 417.499 180.138 419.246 175.468C420.952 170.879 421.692 166.209 422.699 161.456C422.72 161.312 422.967 161.312 422.987 161.456V161.476Z" fill="#D9DDE1"/>
<path d="M429.133 157.937C429.585 165.18 426.358 172.772 421.219 177.834C420.993 178.06 420.582 177.751 420.788 177.484C425.145 171.496 427.612 165.18 429.009 157.937C429.009 157.855 429.133 157.896 429.153 157.958L429.133 157.937Z" fill="#D9DDE1"/>
<path d="M436.697 153.781C434.765 162.875 430.428 171.723 423.645 178.183C423.46 178.348 423.131 178.101 423.295 177.895C429.092 170.55 433.778 162.731 436.573 153.74C436.594 153.658 436.717 153.699 436.697 153.781Z" fill="#D9DDE1"/>
<path d="M441.054 149.81C441.383 149.748 441.712 149.666 442.041 149.563C442.123 149.542 442.205 149.604 442.226 149.686C443.233 154.11 440.129 158.493 437.971 162.093C434.97 167.114 431.64 172.073 427.591 176.311C427.324 176.599 426.851 176.208 427.057 175.879C429.852 171.414 432.976 167.155 435.895 162.772C437.211 160.797 438.547 158.822 439.78 156.785C440.273 155.962 443.459 149.686 441.075 149.933C440.993 149.933 440.952 149.83 441.054 149.81Z" fill="#D9DDE1"/>
<path d="M448.639 147.958C446.748 155.694 443.418 163.349 437.498 168.842C437.252 169.089 436.779 168.739 437.005 168.431C441.835 162.114 446.255 155.633 448.495 147.896C448.516 147.794 448.68 147.835 448.659 147.938L448.639 147.958Z" fill="#D9DDE1"/>
<path d="M453.264 145.777C452.01 151.703 449.461 157.258 445.062 161.517C444.898 161.682 444.59 161.456 444.734 161.25C448.413 156.559 451.475 151.497 453.12 145.736C453.14 145.654 453.264 145.695 453.243 145.777H453.264Z" fill="#D9DDE1"/>
<path d="M460.355 139.337C461.547 141.785 460.067 144.378 458.854 146.518C456.902 149.954 454.374 153.123 451.29 155.633C450.961 155.9 450.571 155.468 450.859 155.16C452.996 152.752 455.052 150.345 456.881 147.691C458.464 145.386 460.869 142.362 460.19 139.399C460.17 139.296 460.314 139.234 460.355 139.337Z" fill="#D9DDE1"/>
<path d="M468.762 137.938C466.665 141.189 464.281 144.275 461.938 147.341C460.807 148.822 459.656 150.324 458.484 151.765C457.374 153.123 456.47 154.666 455.216 155.9C454.928 156.188 454.476 155.797 454.682 155.468C455.689 153.74 457.128 152.258 458.341 150.654C459.471 149.151 460.622 147.691 461.773 146.23C464.034 143.411 466.254 140.551 468.7 137.897C468.72 137.856 468.782 137.897 468.762 137.938Z" fill="#D9DDE1"/>
<path d="M473.962 132.629C473.345 135.983 471.598 139.358 469.871 142.238C468.104 145.201 465.925 148.164 463.212 150.345C462.965 150.551 462.513 150.263 462.739 149.954C464.815 147.176 467.056 144.584 468.926 141.662C470.817 138.74 472.112 135.572 473.797 132.547C473.859 132.444 473.982 132.527 473.962 132.629Z" fill="#D9DDE1"/>
<path d="M480.621 126.066C481.402 129.193 479.511 132.403 477.888 134.975C475.873 138.205 473.242 141.209 469.933 143.143C469.666 143.308 469.419 142.917 469.625 142.711C472.03 140.242 474.537 137.917 476.552 135.119C478.401 132.547 480.621 129.399 480.457 126.086C480.457 126.004 480.58 125.984 480.601 126.086L480.621 126.066Z" fill="#D9DDE1"/>
<path d="M485.863 121.992C484.424 128.741 481.259 135.839 475.832 140.325C475.627 140.489 475.257 140.242 475.442 140.016C479.902 134.399 483.746 128.967 485.76 121.971C485.76 121.91 485.863 121.93 485.863 121.992Z" fill="#D9DDE1"/>
<path d="M493.427 122.054C492.152 126.601 489.953 131.025 486.377 134.214C486.212 134.358 486.027 134.131 486.15 133.987C489.193 130.325 491.782 126.58 493.283 122.012C493.303 121.93 493.447 121.971 493.427 122.054Z" fill="#D9DDE1"/>
<path d="M496.304 118.515C496.202 123.473 494.372 128.844 490.302 131.95C490.117 132.094 489.891 131.868 490.056 131.683C493.386 127.815 495.852 123.761 496.16 118.515C496.16 118.412 496.304 118.412 496.304 118.515Z" fill="#D9DDE1"/>
<path d="M322.209 148.184C323.504 154.295 323.319 160.797 322.908 166.99C322.477 173.184 321.572 179.336 320.133 185.385C317.174 197.792 312.323 209.808 305.992 220.878C302.477 227.009 298.449 232.873 293.865 238.284C293.844 238.326 293.783 238.284 293.803 238.223C309.61 218.306 318.921 194.706 321.264 169.377C321.922 162.32 321.654 155.262 322.045 148.205C322.045 148.102 322.209 148.082 322.23 148.205L322.209 148.184Z" fill="#D9DDE1"/>
<path d="M310.637 191.64C308.602 203.8 304.019 215.754 297.709 226.289C297.606 226.474 297.339 226.289 297.421 226.124C302.621 214.87 306.711 203.388 310.164 191.496C310.247 191.187 310.678 191.331 310.637 191.64Z" fill="#D9DDE1"/>
<path d="M253.907 285.114C267.124 289.353 277.298 300.525 283.732 312.397C283.814 312.562 283.567 312.706 283.464 312.541C279.991 306.739 275.325 301.616 270.289 297.13C265.212 292.604 259.395 289.311 253.537 285.937C253.085 285.69 253.414 284.95 253.907 285.114Z" fill="#D9DDE1"/>
<path d="M239.088 290.999C249.303 291.122 259.087 295.011 267.124 301.245C267.268 301.369 267.124 301.616 266.959 301.513C258.429 296.266 248.933 293.262 239.067 291.822C238.553 291.739 238.553 290.999 239.088 290.999Z" fill="#D9DDE1"/>
<path d="M242.623 263.428C251.297 265.917 259.313 271.658 266.014 277.542C273.105 283.777 278.716 291.163 283.218 299.455C283.279 299.579 283.115 299.661 283.033 299.558C278.161 291.883 271.954 284.908 265.089 278.942C258.121 272.872 250.228 268.757 242.294 264.148C241.904 263.921 242.171 263.284 242.623 263.428Z" fill="#D9DDE1"/>
<path d="M250.187 253.86C253.517 255.053 256.436 257.831 259.087 260.094C262.17 262.728 265.089 265.567 267.761 268.613C272.982 274.518 277.257 281.308 280.566 288.447C280.628 288.571 280.443 288.674 280.361 288.55C276.558 281.699 271.975 275.402 266.672 269.621C264.123 266.823 261.389 264.189 258.491 261.74C255.675 259.354 252.14 257.42 249.632 254.724C249.283 254.354 249.653 253.675 250.166 253.86H250.187Z" fill="#D9DDE1"/>
<path d="M262.622 251.103C265.932 254.189 268.439 258.284 270.474 262.317C272.509 266.329 274.359 270.752 275.099 275.197C275.119 275.382 274.893 275.423 274.832 275.258C273.249 270.855 271.81 266.473 269.611 262.317C267.514 258.407 264.883 254.909 262.478 251.185C262.417 251.103 262.54 251.021 262.622 251.082V251.103Z" fill="#D9DDE1"/>
<path d="M260.361 242.646C268.933 248.593 274.462 258.366 276.682 268.448C276.702 268.571 276.538 268.613 276.497 268.489C273.228 258.551 267.35 250.321 260.259 242.77C260.197 242.708 260.279 242.585 260.361 242.646Z" fill="#D9DDE1"/>
<path d="M263.342 230.178C268.11 235.095 272.098 240.815 274.421 247.173C272.591 240.321 270.063 233.696 266.26 227.667C266.137 227.482 266.445 227.318 266.569 227.503C271.214 234.025 274.523 241.391 275.448 249.416C275.448 249.58 275.345 249.663 275.222 249.663C276.044 252.523 276.538 255.506 276.579 258.613C276.579 258.963 276.024 259.024 275.962 258.675C273.907 248.449 270.351 238.182 263.218 230.281C263.157 230.198 263.26 230.095 263.342 230.157V230.178Z" fill="#D9DDE1"/>
<path d="M271.235 222.894C274.441 226.68 276.065 231.865 277.319 236.618C278.655 241.7 279.354 246.988 278.819 252.235C278.799 252.502 278.367 252.584 278.326 252.276C277.627 247.276 276.99 242.255 275.757 237.358C274.523 232.441 272.283 227.894 270.988 223.038C270.947 222.894 271.152 222.791 271.235 222.894Z" fill="#D9DDE1"/>
<path d="M293.988 199.109C287.596 213.203 285.664 228.737 284.698 244.004C284.698 244.21 284.348 244.272 284.307 244.046C282.498 228.346 287.041 212.997 293.865 199.047C293.906 198.965 294.009 199.047 293.968 199.109H293.988Z" fill="#D9DDE1"/>
<path d="M307.266 186.969C304.861 193.204 302.601 199.5 300.504 205.837C298.407 212.154 296.989 218.841 294.44 224.993C294.338 225.24 293.885 225.24 293.927 224.91C294.749 218.347 297.318 211.763 299.517 205.549C301.758 199.212 304.348 193.018 307.164 186.907C307.184 186.846 307.287 186.907 307.266 186.949V186.969Z" fill="#D9DDE1"/>
<path d="M273.434 215.281C276.538 220.589 278.346 226.824 279.539 232.832C280.114 235.733 280.443 238.634 280.628 241.576C280.731 243.078 280.792 244.58 280.854 246.082C280.916 247.852 281.286 249.601 281.142 251.37C281.142 251.576 280.792 251.638 280.772 251.412C280.607 250.115 280.772 248.881 280.71 247.584C280.649 245.856 280.34 244.087 280.073 242.379C279.559 239.293 278.86 236.206 278.182 233.141C276.825 227.112 274.832 221.31 273.228 215.363C273.187 215.219 273.393 215.158 273.454 215.281H273.434Z" fill="#D9DDE1"/>
<path d="M260.608 235.774C267.062 241.144 272.016 248.593 273.66 256.946C273.722 257.296 273.208 257.522 273.064 257.173C269.796 249.498 265.87 242.358 260.341 236.021C260.176 235.836 260.423 235.61 260.608 235.774Z" fill="#D9DDE1"/>
<path d="M286.054 211.248C282.971 220.219 281.656 230.548 282.868 240.013C282.868 240.116 282.724 240.177 282.704 240.054C281.635 235.116 281.101 230.095 281.635 225.034C282.128 220.24 283.773 215.487 285.849 211.166C285.91 211.042 286.095 211.145 286.054 211.269V211.248Z" fill="#D9DDE1"/>
<path d="M294.297 206.392C291.131 215.898 289.528 225.733 288.809 235.712C288.809 235.836 288.582 235.877 288.562 235.733C287.452 225.589 289.59 215.384 293.968 206.248C294.05 206.063 294.358 206.207 294.297 206.392Z" fill="#D9DDE1"/>
<path d="M247.679 258.819C257.319 263.551 266.178 271.473 271.872 280.608C272.016 280.834 271.666 281.081 271.502 280.876C268.131 276.76 264.698 272.728 260.814 269.086C256.744 265.279 252.263 262.008 247.659 258.86C247.638 258.86 247.659 258.798 247.679 258.819Z" fill="#D9DDE1"/>
<path d="M242.418 277.872C253.291 277.81 262.314 283.777 269.693 291.307C269.734 291.348 269.693 291.39 269.631 291.369C262.17 284.394 251.996 280.937 242.356 278.283C242.13 278.221 242.191 277.872 242.418 277.872Z" fill="#D9DDE1"/>
<path d="M231.195 270.464C244.987 268.469 258.594 275.896 268.234 285.135C268.295 285.176 268.213 285.258 268.152 285.217C263.095 280.69 256.867 277.439 250.536 275.094C244.288 272.769 237.793 271.946 231.236 271.02C230.948 270.979 230.845 270.506 231.174 270.464H231.195Z" fill="#D9DDE1"/>
<path d="M303.279 291.451C308.232 299.887 308.849 310.113 304.718 318.981C304.677 319.084 304.492 319.002 304.533 318.899C307.534 309.99 307.164 300.031 303.279 291.451Z" fill="#D9DDE1"/>
<path d="M458.649 187.113C475.544 186.331 491.967 182.319 506.376 173.163C506.458 173.101 506.52 173.245 506.438 173.287C492.42 182.463 475.524 188.307 458.628 187.607C458.299 187.607 458.32 187.134 458.628 187.113H458.649Z" fill="#D9DDE1"/>
<path d="M477.004 180.241C485.76 178.389 494.167 175.57 502.039 171.25C510.014 166.888 516.612 161.25 523.045 154.933C523.107 154.871 523.21 154.954 523.148 155.015C517.722 161.847 510.281 167.505 502.717 171.764C494.845 176.208 486.048 179.397 477.086 180.632C476.819 180.673 476.737 180.282 476.983 180.22L477.004 180.241Z" fill="#D9DDE1"/>
<path d="M440.972 196.599C455.792 195.858 470.221 193.985 484.301 189.027C484.321 189.027 484.342 189.047 484.301 189.068C470.632 194.232 455.648 197.627 440.952 196.989C440.684 196.989 440.705 196.599 440.952 196.599H440.972Z" fill="#D9DDE1"/>
<path d="M367.614 294.702C381.755 293.097 395.67 291.39 408.969 285.937C409.092 285.875 409.195 286.081 409.072 286.122C396.164 291.657 381.899 296.101 367.675 295.402C367.285 295.402 367.182 294.723 367.593 294.682L367.614 294.702Z" fill="#D9DDE1"/>
<path d="M534.515 114.852C542.017 119.05 550.485 121.91 559.077 122.547C559.139 122.547 559.139 122.63 559.077 122.63C550.198 122.362 541.791 120.037 534.33 115.14C534.145 115.017 534.33 114.729 534.515 114.832V114.852Z" fill="#D9DDE1"/>
<path d="M541.215 94.8529C550.033 100.717 560.351 103.165 570.814 101.149C571.101 101.087 571.204 101.519 570.916 101.602C560.721 104.256 549.149 101.931 541.113 94.9763C541.03 94.9146 541.133 94.7911 541.215 94.8529Z" fill="#D9DDE1"/>
<path d="M561.503 96.3754C570.731 96.5195 579.837 94.8734 588.12 90.6966C588.223 90.6555 588.305 90.7995 588.203 90.8406C580.104 95.429 570.814 97.8157 561.482 96.8693C561.153 96.8281 561.174 96.3549 561.482 96.3549L561.503 96.3754Z" fill="#D9DDE1"/>
<path d="M543.312 78.9892C543.579 78.8246 543.867 79.2361 543.62 79.4418C538.605 83.31 533.836 87.3634 529.52 91.9929C525.039 96.8075 521.257 102.095 517.722 107.651C517.537 107.959 517.085 107.671 517.249 107.363C523.189 96.0462 532.5 85.7997 543.291 78.9892H543.312Z" fill="#D9DDE1"/>
<path d="M515.358 78.4954C515.502 78.3925 515.687 78.5777 515.543 78.7011C505.04 89.2152 495.934 100.696 487.528 112.918C487.302 113.247 486.808 112.959 486.993 112.589C493.653 99.3177 503.704 87.5897 515.358 78.4954Z" fill="#D9DDE1"/>
<path d="M494.228 96.1285C491.906 100.202 488.925 103.947 486.15 107.733C483.52 111.334 480.847 114.935 478.052 118.391C477.867 118.638 477.477 118.309 477.641 118.062C480.251 114.132 483.047 110.326 485.842 106.54C488.494 102.98 491.022 99.2354 494.043 95.9845C494.126 95.8816 494.29 96.0257 494.228 96.1285Z" fill="#D9DDE1"/>
<path d="M247.926 445.438C255.963 386.613 280.834 347.766 280.834 347.766C256.559 405.295 249.817 434.224 247.926 445.438Z" fill="#D9DDE1"/>
<path d="M307.061 246.576C307.061 246.576 307.143 246.576 307.143 246.597C303.423 257.296 302.272 267.975 301.819 279.23C301.819 279.518 301.388 279.559 301.367 279.25C300.504 268.16 303.073 256.843 307.061 246.556V246.576Z" fill="#D9DDE1"/>
<path d="M238.779 501.403C240.259 500.21 241.575 497.082 241.575 497.082C243.959 490.93 245.275 487.618 245.275 487.618C245.275 487.618 249.879 476.466 258.306 469.943C262.992 466.302 265.418 460.52 265.294 454.615C265.048 442.804 265.479 428.731 277.093 423.278C276.682 419.081 273.516 415.624 269.323 414.904C264.102 413.999 265.562 415.912 257.628 412.476C259.375 417.167 268.789 417.373 269.59 420.706C270.597 424.904 261.8 433.278 261.184 447.064C260.937 452.66 261.492 458.071 259.909 461.59C255.881 470.622 246.59 475.684 238.779 501.403Z" fill="#D9DDE1"/>
<path d="M236.95 502C236.95 502 242.911 473.585 244.596 464.265C244.596 464.265 250.187 464.1 251.461 458.977C253.209 451.961 247.145 450.52 247.145 450.52C247.145 450.52 251.544 453.277 249.077 458.257C246.631 463.236 242.048 461.158 242.048 461.158L236.95 501.979V502Z" fill="#D9DDE1"/>
<path d="M309.486 356.778C309.486 356.778 309.651 356.778 309.589 356.861C301.676 364.597 294.543 372.848 288.48 381.716C282.642 390.255 278.141 399.246 273.619 408.299C273.475 408.587 272.92 408.423 273.023 408.135C279.374 389.041 293.351 371.078 309.486 356.799V356.778Z" fill="#D9DDE1"/>
<path d="M237.238 452.763C238.759 449.615 242.602 448.36 245.521 449.738C245.809 449.882 245.747 450.376 245.418 450.356C242.829 450.191 240.444 451.528 239.375 454.203C238.389 456.631 238.964 458.936 239.992 461.158C240.095 461.384 239.889 461.713 239.643 461.59C236.724 460.129 235.799 455.767 237.258 452.763H237.238Z" fill="#D9DDE1"/>
<path d="M228.687 466.96C228.626 466.651 228.913 466.446 229.078 466.713C234.607 476.425 235.635 489.161 233.949 500.416C233.887 500.868 233.332 500.807 233.312 500.333C232.983 488.852 230.743 478.091 228.667 466.96H228.687Z" fill="#D9DDE1"/>
<path d="M424.796 116.19C424.858 116.046 425.104 116.087 425.042 116.251C421.219 128.391 419.267 140.613 417.643 153.225C417.581 153.699 416.862 153.74 416.882 153.225C416.882 140.551 420.089 127.876 424.796 116.19Z" fill="#D9DDE1"/>
<path d="M352.198 186.743C352.321 186.743 352.321 186.949 352.198 186.949C352.075 186.949 352.075 186.743 352.198 186.743Z" fill="#D9DDE1"/>
<path d="M421.589 94.894C425.967 86.7462 431.435 79.6065 438.012 73.1046C438.053 73.0635 437.971 72.9812 437.93 73.0223C431.353 79.0304 425.413 85.8203 420.397 93.1863C416.43 98.9886 412.278 107.198 410.305 114.338C398.034 107.589 380.522 103.947 365.723 105.161C374.006 105.038 382.29 106.128 390.224 108.618C397.335 110.84 405.023 114.338 411.497 117.856C413.676 108.597 419.596 98.5359 421.589 94.8529V94.894Z" fill="#D9DDE1"/>
<path d="M345.333 146.292C337.974 143.041 330.328 141.333 323.34 142.115C316.166 142.917 309.425 145.839 302.888 148.761C302.477 148.946 302.58 149.007 302.888 148.761C313.947 139.831 331.418 137.547 344.449 143.555C346.155 136.23 352.527 129.646 358.282 125.222C364.798 120.222 372.814 117.095 380.912 115.881C381.015 115.881 381.036 116.025 380.954 116.066C373.287 118.247 366.483 121.313 360.029 126.004C352.589 131.415 347.286 140.057 345.353 146.271L345.333 146.292Z" fill="#D9DDE1"/>
<path d="M238.718 104.4C246.179 99.8939 254.277 98.2684 263.033 97.7952C267.514 97.5483 277.134 98.577 282.437 99.9967C277.791 96.6429 270.741 87.8161 267.966 83.3718C263.527 76.2732 260.608 69.4422 259.313 61.1914C259.313 61.1297 259.416 61.1091 259.416 61.1914C261.266 69.2776 264.534 76.767 269.364 83.5364C271.358 86.3346 273.578 88.9477 275.983 91.4168C278.552 94.0504 281.697 96.1903 283.937 99.1326L285.602 100.82C286.301 101.396 285.952 102.507 285.006 102.466C281.471 102.342 278.059 100.635 274.564 99.9967C270.556 99.256 266.466 98.9885 262.417 99.1326C254.277 99.4001 246.179 101.128 238.8 104.606C238.677 104.667 238.615 104.503 238.718 104.42V104.4Z" fill="#D9DDE1"/>
<path d="M285.89 151.477C279.621 158.081 274.914 165.571 271.358 173.945C271.296 174.068 271.132 173.986 271.173 173.863C276.599 158.205 291.686 139.296 304.964 133.905C297.544 120.634 298.325 103.062 302.457 88.9889C302.498 88.8654 302.703 88.9066 302.662 89.03C300.483 96.2932 299.723 104.194 300.586 111.725C301.491 119.585 304.615 127.876 307.41 135.16C301.922 136.621 289.281 147.012 285.89 151.477Z" fill="#D9DDE1"/>
<path d="M317.872 43.3525C318.181 44.3401 319.352 44.5253 319.907 43.8463C320.092 43.7229 320.236 43.5171 320.257 43.2085C320.257 43.1056 320.257 43.0027 320.257 42.9204C321.449 38.7436 321.223 34.4845 322.867 30.3694C324.82 25.5342 328.129 21.131 331.747 17.3863C331.788 17.3451 331.747 17.2628 331.685 17.304C327.78 20.9047 324.532 24.9992 322.065 29.711C320.791 32.1594 319.825 39.0317 319.003 41.8916C317.194 39.0111 313.864 32.3241 311.809 30.678C307.451 27.1802 302.395 24.67 296.866 23.8264C296.845 23.8264 296.825 23.8675 296.866 23.8675C302.066 25.4519 307.307 27.5505 311.089 31.5216C312.857 33.3734 314.193 35.719 315.324 38.0235C316.577 40.5542 317.646 42.5295 317.913 43.3525H317.872Z" fill="#D9DDE1"/>
<path d="M326.526 198.203C329.342 199.685 331.747 202.442 333.699 205.878C334.624 207.503 335.734 213.367 336.412 215.939C337.111 213.758 338.242 208.368 339.146 206.578C340.873 203.142 342.969 200.302 345.333 197.977C345.374 197.936 345.395 198.018 345.353 198.059C343.113 200.549 340.975 203.615 339.495 207.215C338.242 210.281 337.974 213.758 336.947 216.927C336.947 217.009 336.947 217.092 336.926 217.174C336.885 217.4 336.803 217.544 336.68 217.627C336.33 218.1 335.734 217.771 335.672 216.927C335.611 216.227 335.241 214.499 334.809 212.277C334.439 210.261 333.946 208.182 333.206 206.454C331.603 202.709 329.054 200.282 326.485 198.245V198.203H326.526Z" fill="#D9DDE1"/>
<path d="M379.556 97.9803C379.7 95.0175 380.44 91.3551 380.851 86.8902C381.241 82.8162 381.467 78.7011 382.248 74.6684C383.749 66.9937 386.688 59.7512 389.915 52.6526C389.956 52.5703 389.833 52.488 389.792 52.5703C385.804 59.3808 383.605 65.6152 381.344 73.1458C379.659 78.7217 378.713 88.5156 377.87 94.75C373.821 93.4126 363.153 91.2933 357.583 91.6637C350.389 92.1369 343.524 92.8365 337.296 96.396C337.214 96.4372 337.276 96.5812 337.358 96.5401C343.894 94.0093 350.615 92.9394 357.604 93.1657C361.077 93.2891 365.168 93.536 368.518 94.4825C372.814 95.6965 378.795 97.1779 379.556 97.9598V97.9803Z" fill="#D9DDE1"/>
<path d="M319.044 203.841C319.044 203.841 319.023 203.882 319.003 203.923C318.325 204.829 317.112 203.965 317.379 202.997C319.537 195.59 323.196 188.842 325.128 181.27C326.916 174.295 328.047 167.237 328.088 160.015C328.088 159.912 328.273 159.912 328.273 160.015C328.437 167.813 327.553 174.706 325.847 182.34C325.354 184.521 322.374 193.265 321.737 195.59C323.093 193.965 328.437 187.422 329.568 186.208C334.419 181.064 338.879 175.694 344.737 171.702C344.799 171.661 344.86 171.743 344.799 171.784C339.352 176.764 334.747 182.113 330.287 188.039C324.758 195.405 320.298 201.31 319.023 203.841H319.044Z" fill="#D9DDE1"/>
<path d="M315.899 70.4504C308.232 71.5409 301.511 75.4296 294.523 78.7423C294.399 78.804 294.523 79.0098 294.625 78.948C301.367 75.4913 308.746 72.796 316.228 71.7466C323.237 70.759 330.349 70.2858 337.461 71.582C337.954 71.6643 338.262 71.1705 338.406 70.7178C339.105 70.7178 339.742 70.3269 339.886 69.3804C342.168 54.7101 348.128 43.2085 359.783 35.184C359.824 35.1635 359.783 35.1017 359.742 35.1223C348.539 41.9328 340.297 55.8006 337.584 69.6273C330.328 68.6191 321.552 69.6479 315.858 70.4504H315.899Z" fill="#D9DDE1"/>
<path d="M222.953 130.222C227.516 124.091 235.039 120.634 242.644 120.675C242.685 120.675 242.705 120.757 242.644 120.757C235.614 121.457 229.386 124.44 224.885 129.996C219.047 137.197 218.575 145.139 220.466 153.514C220.938 155.612 219.684 155.983 218.78 153.946C215.532 146.682 218.39 136.354 222.932 130.222H222.953Z" fill="#D9DDE1"/>
<path d="M202.871 138.37C208.462 139.646 214.854 143.349 218.636 148.349C218.513 148.884 218.451 149.46 218.431 150.057C218.41 150.756 218.431 151.456 218.451 152.156C214.608 145.53 209.633 140.983 201.247 139.44C194.218 138.144 187.558 139.913 181.741 143.946C181.7 143.966 181.659 143.905 181.7 143.884C187.455 138.926 195.41 136.662 202.871 138.37Z" fill="#D9DDE1"/>
<path d="M7.98795e-06 57.1792C4.80972 55.8212 10.5033 55.9447 15.0458 57.7142C18.1084 58.9076 21.1709 61.0268 22.7947 63.393C24.028 60.8211 26.9056 58.3726 29.9271 56.9529C34.2024 54.9365 39.8548 54.4838 44.8289 55.5332C44.8701 55.5332 44.8495 55.5743 44.8289 55.5743C40.0603 54.9159 35.3534 55.348 31.2426 57.1175C25.8984 59.422 23.9458 62.7758 23.4319 66.6645C23.3086 67.6316 22.4042 67.6316 22.2398 66.6234C22.1781 66.2119 22.1576 65.8003 22.2192 65.3888C21.0271 62.1996 18.7044 59.71 13.7508 57.9611C9.41388 56.4385 4.66584 56.2739 0.0205623 57.2204C-0.0205463 57.2204 -0.0205463 57.1998 0.0205623 57.1792H7.98795e-06Z" fill="#D9DDE1"/>
<path d="M185.009 61.0474C195.348 54.3398 209.325 54.1546 219.047 61.8293C219.952 56.2945 223.939 50.4922 227.475 46.8092C232.839 41.2126 239.396 37.4473 246.939 35.6984C247.001 35.6984 247.022 35.8013 246.939 35.8013C239.643 37.6942 233.148 41.8299 228.441 47.7556C226.323 50.4099 224.432 53.455 223.117 56.5825C222.172 58.8252 221.76 61.2326 220.979 63.4959C221.041 63.5576 221.103 63.5987 221.144 63.6399C222.048 64.5246 220.835 65.9032 219.787 65.5946C219.376 65.6974 218.903 65.5328 218.842 64.9979C208.544 57.3438 196.849 54.9571 184.989 61.0062L185.009 61.0474Z" fill="#D9DDE1"/>
<path d="M436.861 66.7262C449.584 57.5701 464.198 49.1754 480.375 46.4182C480.416 46.4182 480.436 46.4594 480.375 46.48C464.137 50.8625 450.777 57.4878 438.321 67.5698C436.409 69.113 434.888 68.1459 436.841 66.7468L436.861 66.7262Z" fill="#D9DDE1"/>
<path d="M436.861 66.7262C424.138 57.5701 409.462 49.484 393.307 46.7269C393.266 46.7269 393.245 46.768 393.307 46.7886C409.545 51.1712 422.905 57.7965 435.361 67.8784C437.272 69.4216 438.855 68.1459 436.902 66.7468L436.861 66.7262Z" fill="#D9DDE1"/>
<path d="M403.933 169.357C403.851 152.793 408.517 134.214 418.65 121.807C414.436 129.111 410.798 136.292 408.64 144.481C406.544 152.423 406.708 160.9 406.564 169.069C406.544 170.529 403.933 170.92 403.913 169.357H403.933Z" fill="#D9DDE1"/>
<path d="M405.434 168.184C391.436 167.114 371.005 170.673 358.241 179.932C365.62 176.229 372.876 173.06 380.974 171.394C388.846 169.789 397.048 170.427 404.961 170.756C406.379 170.817 406.955 168.287 405.434 168.184Z" fill="#D9DDE1"/>
<path d="M390.573 151.641C389.36 143.061 386.092 135.037 381.077 127.979C381.036 127.918 381.118 127.835 381.18 127.897C385.702 132.773 388.826 138.205 390.737 144.296C391.251 137.588 393.224 131.333 397.171 125.407C397.212 125.346 397.315 125.407 397.274 125.49C392.731 133.164 390.696 142.588 392.752 151.374C392.978 152.361 391.703 152.773 391.046 152.3C390.82 152.176 390.635 151.97 390.573 151.641Z" fill="#D9DDE1"/>
<path d="M364.901 156.764C369.71 152.546 375.322 149.645 381.467 147.958C381.55 147.938 381.57 148.061 381.488 148.082C375.363 150.221 369.772 153.637 365.332 158.431C363.256 160.674 361.468 163.143 359.885 165.756C358.632 167.834 357.933 170.159 356.083 171.764C355.775 172.031 355.363 171.805 355.322 171.414C354.973 166.065 361.139 160.077 364.901 156.785V156.764Z" fill="#D9DDE1"/>
<path d="M344.408 158.493C338.961 155.16 332.918 153.246 326.567 152.629C326.485 152.629 326.485 152.752 326.567 152.752C332.98 153.822 339.064 156.229 344.244 160.18C346.69 162.032 348.868 164.151 350.862 166.476C352.445 168.307 353.555 170.488 355.631 171.743C355.98 171.949 356.35 171.64 356.309 171.27C355.733 165.92 348.642 161.085 344.387 158.493H344.408Z" fill="#D9DDE1"/>
<path d="M160.365 10.0203C161.536 6.35783 163.51 3.00403 166.161 0.0205853C166.202 -0.0205656 166.243 0.0205853 166.223 0.0617362C163.736 3.25093 161.927 6.83106 161.125 10.6169C160.755 12.3864 160.591 14.1559 160.591 15.9254C160.591 17.3245 160.961 18.6414 160.488 20.0405C160.406 20.2668 160.118 20.308 159.995 20.1434C158.145 17.8184 159.46 12.8597 160.385 9.99968L160.365 10.0203Z" fill="#D9DDE1"/>
<path d="M150.355 18.2093C146.511 18.6619 142.811 19.9582 139.358 21.9746C139.317 21.9952 139.358 22.0569 139.399 22.0363C143.017 20.2051 146.902 19.1146 150.807 19.0529C152.636 19.0323 154.425 19.1969 156.172 19.5467C157.549 19.8142 158.803 20.4109 160.262 20.2257C160.509 20.1845 160.611 19.917 160.467 19.773C158.515 17.5303 153.376 17.8801 150.375 18.2299L150.355 18.2093Z" fill="#D9DDE1"/>
<path d="M366.833 186.887C373.677 178.595 387.182 175.653 397.356 175.015C397.459 175.015 397.5 175.179 397.376 175.179C391.642 175.879 386.113 177.402 380.81 179.727C376 181.846 371.848 185.076 367.141 187.278C366.915 187.381 366.668 187.093 366.833 186.887Z" fill="#D9DDE1"/>
<path d="M367.162 186.722C357.522 181.969 343.997 184.85 334.46 188.43C334.357 188.471 334.398 188.636 334.501 188.595C340.03 186.866 345.662 185.982 351.458 185.94C356.72 185.899 361.817 187.154 367.018 187.216C367.264 187.216 367.367 186.846 367.141 186.743L367.162 186.722Z" fill="#D9DDE1"/>
<path d="M371.272 197.154C373.122 192.607 375.815 188.574 379.165 185.015C379.206 184.973 379.268 185.015 379.227 185.076C375.877 189.13 373.348 193.656 371.848 198.718C370.615 202.936 371.087 207.462 369.854 211.536C369.71 211.989 369.094 211.968 368.95 211.536C367.573 207.298 369.628 201.084 371.252 197.154H371.272Z" fill="#D9DDE1"/>
<path d="M360.502 200.631C356.576 197.668 352.239 195.57 347.512 194.232C347.45 194.232 347.429 194.315 347.491 194.335C352.445 196.105 356.926 198.718 360.79 202.298C363.996 205.281 365.908 209.417 369.032 212.298C369.381 212.627 369.916 212.298 369.813 211.845C368.847 207.483 363.893 203.203 360.502 200.652V200.631Z" fill="#D9DDE1"/>
<path d="M335.364 231.906C335.2 232.071 335.529 232.03 335.364 231.906V231.906Z" fill="#D9DDE1"/>
<path d="M314.974 235.774C317.893 228.573 328.006 226.124 333.884 230.857C334.994 227.523 339.393 223.449 342.168 222.297C346.402 220.548 350.985 221.145 354.85 223.347C350.41 221.536 345.436 221.721 341.387 224.561C338.529 226.556 336.721 228.943 335.364 231.885C335.179 232.688 334.028 233.12 333.226 232.441C327.512 227.462 319.948 228.532 315.55 234.951C315.509 234.992 314.933 235.815 314.954 235.774H314.974Z" fill="#D9DDE1"/>
<path d="M171.896 86.993C171.896 86.993 171.957 87.0548 171.896 87.0548C165.873 88.5156 160.426 91.9106 156.994 97.2808C153.911 102.116 153.458 107.342 152.924 112.877C152.903 113.165 152.431 113.206 152.369 112.939C149.368 100.593 160.714 88.9683 171.875 86.993H171.896Z" fill="#D9DDE1"/>
<path d="M124.21 97.9598C124.21 97.9598 124.189 98.0421 124.21 98.0215C130.253 96.6018 136.604 97.1573 142.03 100.429C146.902 103.351 149.615 107.836 152.513 112.548C152.657 112.795 153.088 112.63 153.027 112.342C150.293 99.935 135.062 94.6677 124.189 97.9598H124.21Z" fill="#D9DDE1"/>
<path d="M424.056 45.5129C424.056 45.5129 423.974 45.6569 423.953 45.5746C422.083 36.7889 417.89 32.6121 412.114 33.9495C411.908 33.9907 411.826 33.4557 412.052 33.2911C417.951 29.2583 423.891 35.04 424.056 45.5129Z" fill="#D9DDE1"/>
<path d="M411.189 33.0648C411.189 33.0648 411.189 33.2294 411.127 33.2088C405.721 30.5134 399.391 30.9661 394.273 38.7024C394.191 38.8465 394.067 38.6201 394.149 38.4761C398.754 29.9579 406.749 25.5959 411.168 33.0648H411.189Z" fill="#D9DDE1"/>
<path d="M281.265 53.7843C286.424 46.8915 296.619 45.4101 302.847 47.0767C302.909 47.0767 302.847 47.2001 302.806 47.2001C299.25 46.5006 295.365 46.8915 291.563 48.2906C287.884 49.628 285.006 52.0765 281.656 54.2575C281.306 54.4838 281.019 54.134 281.286 53.8048L281.265 53.7843Z" fill="#D9DDE1"/>
<path d="M264.328 50.7185C270.125 48.2289 278.12 47.5705 281.019 52.9407C281.183 53.2287 280.772 53.7843 280.443 53.5991C275.592 50.8831 270.967 48.3318 264.37 50.9448C264.226 51.0066 264.164 50.7802 264.328 50.7185Z" fill="#D9DDE1"/>
<path d="M86.1431 72.0964C87.4997 67.3641 90.0279 63.6399 94.7143 61.6441C97.7357 60.3478 101.374 59.9157 104.642 60.7388C97.8385 55.6155 96.112 45.8627 99.4006 37.9206C99.4418 37.8383 99.5445 37.9 99.524 37.9823C96.2558 46.9738 101.23 56.6854 108.753 61.7058C109.184 61.9939 108.958 62.5288 108.588 62.714C108.671 63.0638 108.342 63.4959 107.951 63.4341C103.861 62.714 99.9967 61.8704 95.9681 63.4341C91.9394 64.9979 88.1985 68.2488 86.2664 72.1376C86.2459 72.1787 86.1637 72.1581 86.1842 72.117L86.1431 72.0964Z" fill="#D9DDE1"/>
<path d="M302.189 179.295C299.086 173.163 299.168 164.83 299.887 158.575H299.928C299.846 162.155 300.052 165.715 300.792 169.295C301.511 172.71 302.991 175.982 303.772 179.377C304.327 179.891 304.43 180.92 303.525 181.146C297.298 182.731 292.673 184.994 288.5 189.788C288.5 189.809 288.439 189.788 288.459 189.747C291.522 184.994 296.558 180.838 302.189 179.274V179.295Z" fill="#D9DDE1"/>
<path d="M331.397 120.593C335.015 117.939 338.447 118.35 342.126 119.811C337.995 113.206 340.482 104.297 348.58 101.972C348.601 101.972 348.622 102.013 348.58 102.013C341.058 105.326 338.303 114.358 344.182 120.613C344.47 120.922 344.346 121.292 344.079 121.498C343.894 122.218 342.928 122.794 342.353 122.033C340.071 118.988 334.48 118.926 331.623 120.984C328.458 123.247 327.636 126.909 327.923 130.592C327.923 130.695 327.8 130.695 327.759 130.592C326.587 126.951 328.335 122.774 331.356 120.552L331.397 120.593Z" fill="#D9DDE1"/>
<path d="M375.63 61.1914C373.533 50.3481 377.932 38.3321 386.935 31.0484C386.955 31.0484 386.997 31.0484 386.976 31.0689C378.014 39.7724 375.918 50.5128 377.357 61.5823C377.665 62.035 377.706 62.6317 377.5 63.1872C377.5 64.1954 376.493 64.7304 375.671 64.5246C370.882 65.718 366.093 65.3271 361.324 67.2817C355.322 69.7302 350.698 73.5984 346.977 78.5777C346.936 78.6394 346.854 78.5777 346.874 78.5365C351.561 70.5944 364.962 60.8828 375.63 61.212V61.1914Z" fill="#D9DDE1"/>
<path d="M392.197 74.2568C396.123 75.9852 399.144 79.0509 401.528 82.5899C402.063 83.3718 402.638 84.2771 403.193 85.2236C403.399 84.3388 403.625 83.4541 403.872 82.6722C404.92 79.1744 406.873 76.335 409.072 73.475C409.154 73.3721 409.318 73.475 409.236 73.5984C407.099 76.4584 405.989 80.0591 405.598 83.5775C405.29 86.3141 406.153 89.0712 405.516 91.7048C405.454 91.9929 405.269 92.1781 405.043 92.3015C405.043 92.3838 405.043 92.4867 405.002 92.5896C404.879 93.104 404.221 93.0011 403.995 92.6513C403.851 92.425 403.728 92.1781 403.604 91.9312C403.584 91.89 403.543 91.8694 403.543 91.8489C403.522 91.8077 403.502 91.746 403.481 91.7048C402.186 89.1123 401.919 85.9437 400.46 83.3512C398.384 79.6888 395.362 77.0345 392.156 74.4009C392.114 74.3597 392.156 74.2774 392.197 74.298V74.2568Z" fill="#D9DDE1"/>
<path d="M306.876 84.0302C311.665 89.4621 318.818 92.5484 325.477 94.9352C328.725 88.351 330.349 81.7463 331.644 74.5655C331.644 74.442 331.849 74.4832 331.849 74.5861C331.459 81.8698 329.506 89.2358 327.245 96.1286C327.122 96.4989 326.896 96.7252 326.628 96.8075C326.423 97.4042 325.889 97.8569 325.169 97.5483C317.79 94.5237 312.528 89.3798 306.732 84.1742C306.629 84.0919 306.794 83.9273 306.876 84.0302Z" fill="#D9DDE1"/>
<path d="M257.874 133.37C263.013 130.922 270.536 130.51 275.202 134.255C272.386 128.988 273.907 120.572 275.366 115.428C275.366 115.387 275.428 115.408 275.428 115.428C274.606 119.482 274.564 123.453 275.407 127.506C275.962 130.263 277.36 132.856 277.442 135.654C277.442 135.963 277.195 136.168 276.928 136.21C276.887 136.292 276.825 136.354 276.702 136.312C270.248 133.74 265.007 131.539 257.977 133.638C257.833 133.679 257.71 133.452 257.874 133.37Z" fill="#D9DDE1"/>
<path d="M214.011 102.754C214.011 102.754 214.114 102.836 214.176 102.877C214.217 102.836 214.238 102.774 214.279 102.733C219.89 97.5894 227.886 94.4208 235.347 93.3509C235.367 93.3509 235.367 93.3714 235.347 93.392C227.475 95.3055 221.432 98.9885 215.245 104.091C214.957 104.318 214.69 104.318 214.443 104.194C214.238 104.647 213.744 104.935 213.169 104.647C205.05 100.532 196.623 100.717 188.915 105.655C188.874 105.676 188.853 105.634 188.874 105.593C195.677 99.8733 206.119 98.5565 213.991 102.754H214.011Z" fill="#D9DDE1"/>
</g>
<defs>
<clipPath id="clip0_1081_484">
<rect width="686" height="502" fill="white"/>
</clipPath>
</defs>
</svg>
