<svg width="409" height="564" viewBox="0 0 409 564" fill="none" xmlns="http://www.w3.org/2000/svg">
<g clip-path="url(#clip0_1081_1279)">
<path d="M310.106 564H98.9685C56.7559 564 22.3742 529.608 22.3742 487.383V477.759C22.3742 377.268 104.115 295.503 204.575 295.503C305.035 295.503 386.775 377.268 386.775 477.759V487.383C386.775 529.608 352.393 564 310.181 564H310.106ZM204.5 303.411C108.366 303.411 30.1306 381.67 30.1306 477.833V487.457C30.1306 525.356 61.007 556.241 98.8939 556.241H310.032C347.919 556.241 378.795 525.356 378.795 487.457V477.833C378.795 381.67 300.56 303.411 204.425 303.411H204.5Z" fill="#F5F0E1"/>
<path d="M287.732 535.875H121.268C87.5576 535.875 60.0374 509.316 60.0374 476.565V469.254C60.0374 392.189 124.848 329.522 204.425 329.522C284.003 329.522 348.813 392.189 348.813 469.254V476.565C348.813 509.241 321.368 535.875 287.583 535.875H287.732ZM204.5 337.43C129.174 337.43 67.8683 396.59 67.8683 469.329V476.64C67.8683 504.989 91.8087 528.116 121.268 528.116H287.732C317.191 528.116 341.132 505.063 341.132 476.64V469.329C341.132 396.59 279.826 337.43 204.5 337.43Z" fill="#F5F0E1"/>
<path d="M150.877 435.459C135.14 435.459 122.312 422.627 122.312 406.886C122.312 391.144 135.14 378.313 150.877 378.313C166.613 378.313 179.441 391.144 179.441 406.886C179.441 422.627 166.613 435.459 150.877 435.459ZM150.877 386.221C139.466 386.221 130.143 395.546 130.143 406.96C130.143 418.375 139.466 427.7 150.877 427.7C162.287 427.7 171.61 418.375 171.61 406.96C171.61 395.546 162.287 386.221 150.877 386.221Z" fill="#F5F0E1"/>
<path d="M258.198 435.459C242.462 435.459 229.634 422.627 229.634 406.886C229.634 391.144 242.462 378.313 258.198 378.313C273.935 378.313 286.762 391.144 286.762 406.886C286.762 422.627 273.935 435.459 258.198 435.459ZM258.198 386.221C246.787 386.221 237.465 395.546 237.465 406.96C237.465 418.375 246.787 427.7 258.198 427.7C269.609 427.7 278.931 418.375 278.931 406.96C278.931 395.546 269.609 386.221 258.198 386.221Z" fill="#F5F0E1"/>
<path d="M204.5 505.884C187.421 505.884 175.115 499.394 167.956 486.487C166.911 484.622 167.583 482.235 169.447 481.19C171.312 480.146 173.698 480.817 174.742 482.683C180.485 493.052 190.181 498.051 204.425 498.051C218.67 498.051 228.366 493.052 234.109 482.683C235.153 480.817 237.539 480.146 239.404 481.19C241.268 482.235 241.939 484.622 240.895 486.487C233.736 499.394 221.504 505.884 204.351 505.884H204.5Z" fill="#F5F0E1"/>
<path d="M26.327 477.833C11.7837 477.833 0 465.971 0 451.498V432.4C0 402.633 24.2387 378.313 53.9963 378.313C55.4134 378.313 56.7558 379.059 57.4271 380.327C58.0983 381.595 58.0983 383.087 57.2779 384.281C40.2735 411.064 30.8764 442.098 30.2051 473.954C30.2051 476.043 28.4152 477.759 26.327 477.759V477.833ZM46.6875 386.743C24.6862 390.249 7.75638 409.422 7.75638 432.4V451.498C7.75638 460.451 14.0957 467.911 22.5233 469.627C23.7912 440.383 32.1442 411.959 46.6875 386.743Z" fill="#F5F0E1"/>
<path d="M382.673 477.833C380.51 477.833 378.795 476.117 378.795 474.029C378.124 442.173 368.726 411.138 351.722 384.356C350.976 383.162 350.902 381.595 351.573 380.402C352.244 379.133 353.587 378.387 355.004 378.387C384.761 378.387 409 402.633 409 432.475V451.573C409 466.121 397.142 477.908 382.673 477.908V477.833ZM362.313 386.743C376.856 411.959 385.134 440.383 386.477 469.627C394.904 467.911 401.244 460.376 401.244 451.498V432.4C401.244 409.422 384.388 390.249 362.313 386.743Z" fill="#F5F0E1"/>
<path d="M204.5 303.411C202.337 303.411 200.622 301.695 200.622 299.532V245.071C200.622 242.908 202.337 241.192 204.5 241.192C206.663 241.192 208.378 242.908 208.378 245.071V299.532C208.378 301.695 206.663 303.411 204.5 303.411Z" fill="#F5F0E1"/>
<path d="M204.5 248.951C191.598 248.951 181.082 238.432 181.082 225.525C181.082 212.619 191.598 202.1 204.5 202.1C217.402 202.1 227.918 212.619 227.918 225.525C227.918 238.432 217.402 248.951 204.5 248.951ZM204.5 209.933C195.923 209.933 188.913 216.946 188.913 225.525C188.913 234.105 195.923 241.117 204.5 241.117C213.077 241.117 220.087 234.105 220.087 225.525C220.087 216.946 213.077 209.933 204.5 209.933Z" fill="#F5F0E1"/>
<path d="M271.846 162.113C270.877 162.113 269.833 161.74 269.087 160.994C251.859 143.76 228.888 134.211 204.5 134.211C180.112 134.211 157.141 143.686 139.913 160.994C138.422 162.486 135.886 162.486 134.394 160.994C132.903 159.502 132.903 156.965 134.394 155.473C153.114 136.748 178.024 126.452 204.5 126.452C230.976 126.452 255.886 136.748 274.606 155.473C276.097 156.965 276.097 159.502 274.606 160.994C273.86 161.74 272.816 162.113 271.846 162.113Z" fill="#F5F0E1"/>
<path d="M196.669 74.0064C194.581 74.0064 192.865 72.3651 192.791 70.2762C192.716 68.1127 194.357 66.2476 196.52 66.173C199.205 66.0238 201.815 65.9492 204.5 65.9492C206.663 65.9492 208.378 67.6651 208.378 69.8286C208.378 71.9921 206.663 73.7079 204.5 73.7079C201.964 73.7079 199.429 73.7079 196.893 73.9318H196.669V74.0064Z" fill="#F5F0E1"/>
<path d="M111.945 104.37C110.752 104.37 109.559 103.848 108.813 102.803C107.545 101.087 107.918 98.6254 109.633 97.3572C113.81 94.2984 118.136 91.3143 122.611 88.7032C124.475 87.5842 126.862 88.181 127.98 90.046C129.099 91.9111 128.502 94.2984 126.638 95.4175C122.387 97.954 118.285 100.714 114.332 103.624C113.661 104.146 112.84 104.37 112.02 104.37H111.945ZM137.974 88.7032C136.482 88.7032 135.14 87.8826 134.469 86.4651C133.574 84.5254 134.394 82.2127 136.333 81.2429C141.032 79.0048 145.88 76.9905 150.727 75.2746C152.741 74.5286 154.978 75.573 155.724 77.6619C156.47 79.6762 155.426 81.9143 153.338 82.6603C148.714 84.3016 144.09 86.2413 139.615 88.3302C139.093 88.554 138.496 88.7032 137.974 88.7032ZM166.538 78.4826C164.823 78.4826 163.182 77.2889 162.735 75.4984C162.213 73.4095 163.481 71.246 165.569 70.7238C170.566 69.4556 175.712 68.4111 180.858 67.6651C183.021 67.3667 184.96 68.8588 185.333 70.9476C185.631 73.1111 184.139 75.0508 182.051 75.4238C177.203 76.1699 172.281 77.1397 167.508 78.3334C167.21 78.408 166.837 78.4826 166.538 78.4826Z" fill="#F5F0E1"/>
<path d="M94.4936 119.44C93.5241 119.44 92.4799 119.067 91.7341 118.321C90.2425 116.829 90.2425 114.292 91.7341 112.8C93.5986 110.935 95.5377 109.07 97.5514 107.279C99.1176 105.862 101.653 105.937 103.07 107.578C104.487 109.144 104.413 111.681 102.772 113.098C100.908 114.814 99.043 116.53 97.2531 118.321C96.5073 119.067 95.4632 119.44 94.4936 119.44Z" fill="#F5F0E1"/>
<path d="M314.506 119.44C313.537 119.44 312.493 119.067 311.747 118.321C283.108 89.673 244.997 73.8571 204.5 73.8571C202.337 73.8571 200.622 72.1413 200.622 69.9778C200.622 67.8143 202.337 66.0984 204.5 66.0984C247.086 66.0984 287.135 82.6603 317.266 112.8C318.757 114.292 318.757 116.829 317.266 118.321C316.52 119.067 315.476 119.44 314.506 119.44Z" fill="#F5F0E1"/>
<path d="M47.8062 72.7381C46.8366 72.7381 45.7925 72.3651 45.0467 71.619C43.5551 70.127 43.5551 67.5905 45.0467 66.0984C87.6322 23.4254 144.313 0 204.5 0C264.687 0 321.368 23.4254 363.953 66.0984C365.445 67.5905 365.445 70.127 363.953 71.619C362.462 73.1111 359.926 73.1111 358.434 71.619C317.34 30.4381 262.673 7.83333 204.5 7.83333C146.327 7.83333 91.7341 30.4381 50.6402 71.619C49.8944 72.3651 48.8503 72.7381 47.8808 72.7381H47.8062Z" fill="#F5F0E1"/>
</g>
<defs>
<clipPath id="clip0_1081_1279">
<rect width="409" height="564" fill="white"/>
</clipPath>
</defs>
</svg>
